<?xml version="1.0" encoding="utf-8"?>
<svg id="master-artboard" viewBox="0 0 1400 980" version="1.1" xmlns="http://www.w3.org/2000/svg" x="0px" y="0px" style="enable-background:new 0 0 1400 980;" width="1400px" height="980px"><defs><style id="ee-google-fonts">@import url(https://fonts.googleapis.com/css?family=Fjalla+One:400|Roboto:100,100italic,300,300italic,400,400italic,500,500italic,700,700italic,900,900italic);</style></defs>

































































































<g transform="matrix(12.350200653076172, 0, 0, 12.350200653076172, -684.8054415384478, 185.6551326115363)"><g transform="matrix(1, 0, 0, 1, 0, 0)">
						<g>
							<g>
								<g>
									<path class="st3" d="M125.2,23.8c-5.4,0.4-10.1-4.1-10.1-4.1s4-5.2,9.3-5.6c5.4-0.4,10.1,4.1,10.1,4.1&#10;&#9;&#9;&#9;&#9;&#9;&#9;&#9;&#9;&#9;&#9;S130.5,23.4,125.2,23.8z" style="fill: rgb(236, 173, 50);"/>
								</g>
								<g>
									<g>
										<path class="st4" d="M134.1,18.2c-0.3,0.4-1.2,1.4-2.5,2.4c-1.5,1.2-3.8,2.7-6.5,2.9c-2.7,0.2-5.2-0.9-6.9-1.9&#10;&#9;&#9;&#9;&#9;&#9;&#9;&#9;&#9;&#9;&#9;&#9;c-1.4-0.8-2.4-1.7-2.8-2c0.3-0.4,1.2-1.4,2.5-2.4c1.5-1.2,3.8-2.7,6.5-2.9c2.7-0.2,5.2,0.9,6.9,1.9&#10;&#9;&#9;&#9;&#9;&#9;&#9;&#9;&#9;&#9;&#9;&#9;C132.7,17,133.7,17.8,134.1,18.2 M134.5,18.2c0,0-4.7-4.5-10.1-4.1c-5.4,0.4-9.3,5.6-9.3,5.6s4.7,4.5,10.1,4.1&#10;&#9;&#9;&#9;&#9;&#9;&#9;&#9;&#9;&#9;&#9;&#9;C130.5,23.4,134.5,18.2,134.5,18.2L134.5,18.2z" style="fill: rgb(173, 50, 0);"/>
									</g>
									<g>
										<g>
											<path class="st4" d="M132,16.7c-0.5-0.2-1-0.4-1.6-0.5c-0.6-0.2-1.2-0.3-1.9-0.5c-0.2,0-0.3-0.1-0.5-0.1&#10;&#9;&#9;&#9;&#9;&#9;&#9;&#9;&#9;&#9;&#9;&#9;&#9;c-0.1,0-0.2,0-0.2,0c-0.1,0-0.2,0-0.3,0c-0.2,0-0.3,0-0.5-0.1c-0.2,0-0.3,0-0.5-0.1c-0.3,0-0.7-0.1-1.1-0.1&#10;&#9;&#9;&#9;&#9;&#9;&#9;&#9;&#9;&#9;&#9;&#9;&#9;c-0.2,0-0.4,0-0.5,0c-0.2,0-0.4,0-0.5,0l-0.5,0c-0.1,0-0.2,0-0.3,0l-0.3,0c-0.2,0-0.4,0-0.5,0c-0.2,0-0.3,0-0.5,0.1&#10;&#9;&#9;&#9;&#9;&#9;&#9;&#9;&#9;&#9;&#9;&#9;&#9;c-0.7,0.1-1.4,0.3-2,0.4c-0.2,0-0.3,0.1-0.5,0.2c-0.2,0.1-0.3,0.1-0.5,0.2c-0.3,0.1-0.6,0.2-0.9,0.4&#10;&#9;&#9;&#9;&#9;&#9;&#9;&#9;&#9;&#9;&#9;&#9;&#9;c-0.2,0.1-0.5,0.2-0.7,0.4c-0.1,0.1-0.3,0.2-0.4,0.3c0,0,0,0,0,0c0.1-0.1,0.2-0.1,0.4-0.2c0.3-0.1,0.5-0.3,0.8-0.4&#10;&#9;&#9;&#9;&#9;&#9;&#9;&#9;&#9;&#9;&#9;&#9;&#9;c0.3-0.1,0.6-0.2,0.9-0.4c0.1-0.1,0.3-0.1,0.5-0.2c0.2-0.1,0.3-0.1,0.5-0.2c0.6-0.2,1.3-0.3,2-0.4c0.2,0,0.3-0.1,0.5-0.1&#10;&#9;&#9;&#9;&#9;&#9;&#9;&#9;&#9;&#9;&#9;&#9;&#9;c0.2,0,0.3,0,0.5,0l0.3,0c0.1,0,0.2,0,0.3,0l0.5,0c0.2,0,0.4,0,0.5,0c0.2,0,0.4,0,0.5,0c0.4,0,0.7,0,1.1,0.1&#10;&#9;&#9;&#9;&#9;&#9;&#9;&#9;&#9;&#9;&#9;&#9;&#9;c0.2,0,0.3,0,0.5,0.1c0.2,0,0.3,0,0.5,0.1c0.1,0,0.2,0,0.3,0c0.1,0,0.2,0,0.2,0c0.2,0,0.3,0.1,0.5,0.1&#10;&#9;&#9;&#9;&#9;&#9;&#9;&#9;&#9;&#9;&#9;&#9;&#9;c0.6,0.1,1.3,0.3,1.9,0.4C130.9,16.4,131.5,16.6,132,16.7c0.5,0.2,0.9,0.4,1.3,0.5c0.1,0,0.1,0,0.2,0.1c0,0,0,0,0,0&#10;&#9;&#9;&#9;&#9;&#9;&#9;&#9;&#9;&#9;&#9;&#9;&#9;c0,0-0.1,0-0.1-0.1C132.9,17.1,132.5,16.9,132,16.7z" style="fill: rgb(173, 50, 0);"/>
										</g>
										<g>
											<path class="st4" d="M118.7,22c0.3,0.1,0.6,0.2,0.9,0.2c0.2,0,0.3,0.1,0.5,0.1c0.1,0,0.2,0,0.2,0c0.1,0,0.2,0,0.2,0&#10;&#9;&#9;&#9;&#9;&#9;&#9;&#9;&#9;&#9;&#9;&#9;&#9;c0.7,0.1,1.4,0.1,2.1,0.1c0.2,0,0.4,0,0.5,0c0.2,0,0.4,0,0.5,0c0.4,0,0.7-0.1,1.1-0.1c0.2,0,0.4-0.1,0.5-0.1&#10;&#9;&#9;&#9;&#9;&#9;&#9;&#9;&#9;&#9;&#9;&#9;&#9;c0.2,0,0.4-0.1,0.5-0.1c0.2,0,0.4-0.1,0.5-0.1c0.1,0,0.2,0,0.3-0.1l0.3-0.1c0.2,0,0.3-0.1,0.5-0.1&#10;&#9;&#9;&#9;&#9;&#9;&#9;&#9;&#9;&#9;&#9;&#9;&#9;c0.2-0.1,0.3-0.1,0.5-0.2c0.3-0.1,0.7-0.2,1-0.3c0.6-0.2,1.2-0.5,1.8-0.7c0.6-0.3,1.1-0.5,1.5-0.8&#10;&#9;&#9;&#9;&#9;&#9;&#9;&#9;&#9;&#9;&#9;&#9;&#9;c0.5-0.3,0.9-0.5,1.3-0.7c0.1-0.1,0.2-0.1,0.3-0.2c0,0,0,0-0.1,0c-0.1,0.1-0.2,0.1-0.3,0.2c-0.4,0.2-0.8,0.5-1.3,0.7&#10;&#9;&#9;&#9;&#9;&#9;&#9;&#9;&#9;&#9;&#9;&#9;&#9;c-0.5,0.2-1,0.5-1.6,0.8c-0.6,0.3-1.2,0.5-1.8,0.7c-0.3,0.1-0.6,0.2-1,0.3c-0.2,0.1-0.3,0.1-0.5,0.2&#10;&#9;&#9;&#9;&#9;&#9;&#9;&#9;&#9;&#9;&#9;&#9;&#9;c-0.2,0-0.3,0.1-0.5,0.1l-0.3,0.1c-0.1,0-0.2,0-0.3,0.1c-0.2,0-0.4,0.1-0.5,0.1c-0.2,0-0.4,0.1-0.5,0.1&#10;&#9;&#9;&#9;&#9;&#9;&#9;&#9;&#9;&#9;&#9;&#9;&#9;c-0.2,0-0.4,0.1-0.5,0.1c-0.4,0-0.7,0.1-1.1,0.1c-0.2,0-0.4,0-0.5,0c-0.2,0-0.4,0-0.5,0c-0.7,0-1.4-0.1-2.1-0.1&#10;&#9;&#9;&#9;&#9;&#9;&#9;&#9;&#9;&#9;&#9;&#9;&#9;c-0.1,0-0.2,0-0.2,0c-0.1,0-0.2,0-0.2,0c-0.2,0-0.3-0.1-0.5-0.1C119.3,22.1,119,22,118.7,22c-0.3-0.2-0.5-0.3-0.8-0.4&#10;&#9;&#9;&#9;&#9;&#9;&#9;&#9;&#9;&#9;&#9;&#9;&#9;c-0.1,0-0.1,0-0.2-0.1c-0.1,0-0.1,0-0.2-0.1c0.1,0.1,0.2,0.1,0.3,0.2c0,0,0,0,0.1,0C118.1,21.8,118.4,21.9,118.7,22z" style="fill: rgb(173, 50, 0);"/>
										</g>
										<g>
											<path class="st4" d="M115.1,19.6C115.1,19.6,115.1,19.7,115.1,19.6l19.4-1.5c0,0,0,0,0,0s0,0,0,0L115.1,19.6&#10;&#9;&#9;&#9;&#9;&#9;&#9;&#9;&#9;&#9;&#9;&#9;&#9;C115.1,19.6,115.1,19.6,115.1,19.6z" style="fill: rgb(173, 50, 0);"/>
										</g>
										<g>
											<path class="st4" d="M128.9,16.7c-1.3-0.2-2.7-0.3-4.1-0.4c-1.4,0-2.8,0-4.2,0.2c-1.3,0.2-2.5,0.5-3.5,1&#10;&#9;&#9;&#9;&#9;&#9;&#9;&#9;&#9;&#9;&#9;&#9;&#9;c-0.1,0.1-0.2,0.1-0.2,0.2c0.1,0,0.2-0.1,0.3-0.1c1-0.4,2.2-0.8,3.5-1c1.3-0.2,2.7-0.3,4.1-0.2&#10;&#9;&#9;&#9;&#9;&#9;&#9;&#9;&#9;&#9;&#9;&#9;&#9;C126.1,16.5,127.5,16.6,128.9,16.7c1.3,0.2,2.5,0.5,3.5,0.7c0.6,0.1,1.2,0.3,1.7,0.4c0,0,0,0,0,0c-0.5-0.1-1-0.3-1.6-0.4&#10;&#9;&#9;&#9;&#9;&#9;&#9;&#9;&#9;&#9;&#9;&#9;&#9;C131.4,17.2,130.2,16.9,128.9,16.7z" style="fill: rgb(173, 50, 0);"/>
										</g>
										<g>
											<path class="st4" d="M129,20.6c-0.6,0.2-1.3,0.4-2,0.5c-0.7,0.2-1.4,0.3-2.1,0.4c-0.7,0.1-1.4,0.2-2.2,0.2&#10;&#9;&#9;&#9;&#9;&#9;&#9;&#9;&#9;&#9;&#9;&#9;&#9;c-0.7,0-1.4,0.1-2.1,0c-0.7,0-1.3-0.1-1.9-0.2c-0.5-0.1-1-0.2-1.5-0.4c0.1,0.1,0.2,0.1,0.3,0.2c0.1,0,0.1,0,0.2,0.1&#10;&#9;&#9;&#9;&#9;&#9;&#9;&#9;&#9;&#9;&#9;&#9;&#9;c0.3,0.1,0.6,0.1,1,0.2c0.6,0.1,1.3,0.2,2,0.2c0.7,0,1.4,0,2.1,0c0.7,0,1.4-0.1,2.2-0.3c0.7-0.1,1.4-0.3,2.1-0.4&#10;&#9;&#9;&#9;&#9;&#9;&#9;&#9;&#9;&#9;&#9;&#9;&#9;C127.7,21.1,128.4,20.9,129,20.6c1.3-0.3,2.5-0.8,3.5-1.2c0.5-0.2,0.9-0.4,1.3-0.6c0,0,0,0,0.1,0c0,0,0,0,0,0&#10;&#9;&#9;&#9;&#9;&#9;&#9;&#9;&#9;&#9;&#9;&#9;&#9;c0,0,0,0,0.1-0.1c-0.4,0.2-0.9,0.4-1.4,0.6C131.5,19.8,130.3,20.2,129,20.6z" style="fill: rgb(173, 50, 0);"/>
										</g>
										<g>
											<path class="st4" d="M124.6,17.3c-1.5,0-2.9,0.1-4.3,0.2c-1.4,0.1-2.6,0.4-3.7,0.7c-0.1,0-0.3,0.1-0.4,0.1&#10;&#9;&#9;&#9;&#9;&#9;&#9;&#9;&#9;&#9;&#9;&#9;&#9;c-0.1,0.1-0.1,0.1-0.2,0.2c0.2-0.1,0.4-0.1,0.6-0.2c1-0.3,2.3-0.6,3.7-0.7C121.7,17.4,123.2,17.3,124.6,17.3&#10;&#9;&#9;&#9;&#9;&#9;&#9;&#9;&#9;&#9;&#9;&#9;&#9;c2.9,0,5.8,0.3,8,0.5c0.6,0.1,1.2,0.1,1.6,0.2c0,0,0,0,0,0c-0.5-0.1-1-0.1-1.6-0.2C130.5,17.5,127.6,17.3,124.6,17.3z" style="fill: rgb(173, 50, 0);"/>
										</g>
										<g>
											<path class="st4" d="M131.3,19.3c-0.6,0.1-1.3,0.3-2,0.4c-0.7,0.1-1.4,0.2-2.1,0.4c-0.4,0.1-0.7,0.1-1.1,0.2&#10;&#9;&#9;&#9;&#9;&#9;&#9;&#9;&#9;&#9;&#9;&#9;&#9;c-0.4,0.1-0.7,0.1-1.1,0.1c-0.7,0.1-1.5,0.2-2.2,0.2c-0.4,0-0.7,0.1-1.1,0.1c-0.4,0-0.7,0-1.1,0c-0.7,0-1.4,0-2,0&#10;&#9;&#9;&#9;&#9;&#9;&#9;&#9;&#9;&#9;&#9;&#9;&#9;c-0.3,0-0.6,0-0.9,0c-0.3,0-0.6,0-0.9-0.1c-0.2,0-0.5-0.1-0.7-0.1c0.1,0,0.1,0.1,0.2,0.1c0.2,0,0.4,0,0.5,0.1&#10;&#9;&#9;&#9;&#9;&#9;&#9;&#9;&#9;&#9;&#9;&#9;&#9;c0.3,0,0.6,0.1,0.9,0.1c0.3,0,0.6,0,0.9,0c0.6,0,1.3,0,2,0c0.3,0,0.7,0,1.1-0.1c0.4,0,0.7-0.1,1.1-0.1&#10;&#9;&#9;&#9;&#9;&#9;&#9;&#9;&#9;&#9;&#9;&#9;&#9;c0.7-0.1,1.5-0.1,2.2-0.2c0.4,0,0.7-0.1,1.1-0.2c0.4,0,0.7-0.1,1.1-0.2c0.7-0.1,1.4-0.2,2.1-0.4&#10;&#9;&#9;&#9;&#9;&#9;&#9;&#9;&#9;&#9;&#9;&#9;&#9;C130,19.6,130.7,19.5,131.3,19.3c0.6-0.1,1.2-0.2,1.8-0.3c0.3-0.1,0.6-0.1,0.9-0.2c0,0,0,0,0.1-0.1&#10;&#9;&#9;&#9;&#9;&#9;&#9;&#9;&#9;&#9;&#9;&#9;&#9;c-0.3,0.1-0.6,0.1-1,0.2C132.5,19,132,19.1,131.3,19.3z" style="fill: rgb(173, 50, 0);"/>
										</g>
									</g>
								</g>
							</g>
							<g>
								<path class="st5" d="M125.2,23.8c-5.4,0.4-10.1-4.1-10.1-4.1s4-5.2,9.3-5.6c5.4-0.4,10.1,4.1,10.1,4.1&#10;&#9;&#9;&#9;&#9;&#9;&#9;&#9;&#9;&#9;S130.5,23.4,125.2,23.8z" style="fill: rgb(125, 119, 38);"/>
							</g>
							<g>
								<g>
									<path class="st6" d="M134.1,18.2c-0.3,0.4-1.2,1.4-2.5,2.4c-1.5,1.2-3.8,2.7-6.5,2.9c-2.7,0.2-5.2-0.9-6.9-1.9&#10;&#9;&#9;&#9;&#9;&#9;&#9;&#9;&#9;&#9;&#9;c-1.4-0.8-2.4-1.7-2.8-2c0.3-0.4,1.2-1.4,2.5-2.4c1.5-1.2,3.8-2.7,6.5-2.9c2.7-0.2,5.2,0.9,6.9,1.9&#10;&#9;&#9;&#9;&#9;&#9;&#9;&#9;&#9;&#9;&#9;C132.7,17,133.7,17.8,134.1,18.2 M134.5,18.2c0,0-4.7-4.5-10.1-4.1c-5.4,0.4-9.3,5.6-9.3,5.6s4.7,4.5,10.1,4.1&#10;&#9;&#9;&#9;&#9;&#9;&#9;&#9;&#9;&#9;&#9;C130.5,23.4,134.5,18.2,134.5,18.2L134.5,18.2z" style="fill: rgb(80, 90, 17);"/>
								</g>
								<g>
									<g>
										<path class="st6" d="M132,16.7c-0.5-0.2-1-0.4-1.6-0.5c-0.6-0.2-1.2-0.3-1.9-0.5c-0.2,0-0.3-0.1-0.5-0.1&#10;&#9;&#9;&#9;&#9;&#9;&#9;&#9;&#9;&#9;&#9;&#9;c-0.1,0-0.2,0-0.2,0c-0.1,0-0.2,0-0.3,0c-0.2,0-0.3,0-0.5-0.1c-0.2,0-0.3,0-0.5-0.1c-0.3,0-0.7-0.1-1.1-0.1&#10;&#9;&#9;&#9;&#9;&#9;&#9;&#9;&#9;&#9;&#9;&#9;c-0.2,0-0.4,0-0.5,0c-0.2,0-0.4,0-0.5,0l-0.5,0c-0.1,0-0.2,0-0.3,0l-0.3,0c-0.2,0-0.4,0-0.5,0c-0.2,0-0.3,0-0.5,0.1&#10;&#9;&#9;&#9;&#9;&#9;&#9;&#9;&#9;&#9;&#9;&#9;c-0.7,0.1-1.4,0.3-2,0.4c-0.2,0-0.3,0.1-0.5,0.2c-0.2,0.1-0.3,0.1-0.5,0.2c-0.3,0.1-0.6,0.2-0.9,0.4&#10;&#9;&#9;&#9;&#9;&#9;&#9;&#9;&#9;&#9;&#9;&#9;c-0.2,0.1-0.5,0.2-0.7,0.4c-0.1,0.1-0.3,0.2-0.4,0.3c0,0,0,0,0,0c0.1-0.1,0.2-0.1,0.4-0.2c0.3-0.1,0.5-0.3,0.8-0.4&#10;&#9;&#9;&#9;&#9;&#9;&#9;&#9;&#9;&#9;&#9;&#9;c0.3-0.1,0.6-0.2,0.9-0.4c0.1-0.1,0.3-0.1,0.5-0.2c0.2-0.1,0.3-0.1,0.5-0.2c0.6-0.2,1.3-0.3,2-0.4c0.2,0,0.3-0.1,0.5-0.1&#10;&#9;&#9;&#9;&#9;&#9;&#9;&#9;&#9;&#9;&#9;&#9;c0.2,0,0.3,0,0.5,0l0.3,0c0.1,0,0.2,0,0.3,0l0.5,0c0.2,0,0.4,0,0.5,0c0.2,0,0.4,0,0.5,0c0.4,0,0.7,0,1.1,0.1&#10;&#9;&#9;&#9;&#9;&#9;&#9;&#9;&#9;&#9;&#9;&#9;c0.2,0,0.3,0,0.5,0.1c0.2,0,0.3,0,0.5,0.1c0.1,0,0.2,0,0.3,0c0.1,0,0.2,0,0.2,0c0.2,0,0.3,0.1,0.5,0.1&#10;&#9;&#9;&#9;&#9;&#9;&#9;&#9;&#9;&#9;&#9;&#9;c0.6,0.1,1.3,0.3,1.9,0.4C130.9,16.4,131.5,16.6,132,16.7c0.5,0.2,0.9,0.4,1.3,0.5c0.1,0,0.1,0,0.2,0.1c0,0,0,0,0,0&#10;&#9;&#9;&#9;&#9;&#9;&#9;&#9;&#9;&#9;&#9;&#9;c0,0-0.1,0-0.1-0.1C132.9,17.1,132.5,16.9,132,16.7z" style="fill: rgb(80, 90, 17);"/>
									</g>
									<g>
										<path class="st6" d="M118.7,22c0.3,0.1,0.6,0.2,0.9,0.2c0.2,0,0.3,0.1,0.5,0.1c0.1,0,0.2,0,0.2,0c0.1,0,0.2,0,0.2,0&#10;&#9;&#9;&#9;&#9;&#9;&#9;&#9;&#9;&#9;&#9;&#9;c0.7,0.1,1.4,0.1,2.1,0.1c0.2,0,0.4,0,0.5,0c0.2,0,0.4,0,0.5,0c0.4,0,0.7-0.1,1.1-0.1c0.2,0,0.4-0.1,0.5-0.1&#10;&#9;&#9;&#9;&#9;&#9;&#9;&#9;&#9;&#9;&#9;&#9;c0.2,0,0.4-0.1,0.5-0.1c0.2,0,0.4-0.1,0.5-0.1c0.1,0,0.2,0,0.3-0.1l0.3-0.1c0.2,0,0.3-0.1,0.5-0.1&#10;&#9;&#9;&#9;&#9;&#9;&#9;&#9;&#9;&#9;&#9;&#9;c0.2-0.1,0.3-0.1,0.5-0.2c0.3-0.1,0.7-0.2,1-0.3c0.6-0.2,1.2-0.5,1.8-0.7c0.6-0.3,1.1-0.5,1.5-0.8&#10;&#9;&#9;&#9;&#9;&#9;&#9;&#9;&#9;&#9;&#9;&#9;c0.5-0.3,0.9-0.5,1.3-0.7c0.1-0.1,0.2-0.1,0.3-0.2c0,0,0,0-0.1,0c-0.1,0.1-0.2,0.1-0.3,0.2c-0.4,0.2-0.8,0.5-1.3,0.7&#10;&#9;&#9;&#9;&#9;&#9;&#9;&#9;&#9;&#9;&#9;&#9;c-0.5,0.2-1,0.5-1.6,0.8c-0.6,0.3-1.2,0.5-1.8,0.7c-0.3,0.1-0.6,0.2-1,0.3c-0.2,0.1-0.3,0.1-0.5,0.2&#10;&#9;&#9;&#9;&#9;&#9;&#9;&#9;&#9;&#9;&#9;&#9;c-0.2,0-0.3,0.1-0.5,0.1l-0.3,0.1c-0.1,0-0.2,0-0.3,0.1c-0.2,0-0.4,0.1-0.5,0.1c-0.2,0-0.4,0.1-0.5,0.1&#10;&#9;&#9;&#9;&#9;&#9;&#9;&#9;&#9;&#9;&#9;&#9;c-0.2,0-0.4,0.1-0.5,0.1c-0.4,0-0.7,0.1-1.1,0.1c-0.2,0-0.4,0-0.5,0c-0.2,0-0.4,0-0.5,0c-0.7,0-1.4-0.1-2.1-0.1&#10;&#9;&#9;&#9;&#9;&#9;&#9;&#9;&#9;&#9;&#9;&#9;c-0.1,0-0.2,0-0.2,0c-0.1,0-0.2,0-0.2,0c-0.2,0-0.3-0.1-0.5-0.1C119.3,22.1,119,22,118.7,22c-0.3-0.2-0.5-0.3-0.8-0.4&#10;&#9;&#9;&#9;&#9;&#9;&#9;&#9;&#9;&#9;&#9;&#9;c-0.1,0-0.1,0-0.2-0.1c-0.1,0-0.1,0-0.2-0.1c0.1,0.1,0.2,0.1,0.3,0.2c0,0,0,0,0.1,0C118.1,21.8,118.4,21.9,118.7,22z" style="fill: rgb(80, 90, 17);"/>
									</g>
									<g>
										<path class="st6" d="M115.1,19.6C115.1,19.6,115.1,19.7,115.1,19.6l19.4-1.5c0,0,0,0,0,0s0,0,0,0L115.1,19.6&#10;&#9;&#9;&#9;&#9;&#9;&#9;&#9;&#9;&#9;&#9;&#9;C115.1,19.6,115.1,19.6,115.1,19.6z" style="fill: rgb(80, 90, 17);"/>
									</g>
									<g>
										<path class="st6" d="M128.9,16.7c-1.3-0.2-2.7-0.3-4.1-0.4c-1.4,0-2.8,0-4.2,0.2c-1.3,0.2-2.5,0.5-3.5,1&#10;&#9;&#9;&#9;&#9;&#9;&#9;&#9;&#9;&#9;&#9;&#9;c-0.1,0.1-0.2,0.1-0.2,0.2c0.1,0,0.2-0.1,0.3-0.1c1-0.4,2.2-0.8,3.5-1c1.3-0.2,2.7-0.3,4.1-0.2&#10;&#9;&#9;&#9;&#9;&#9;&#9;&#9;&#9;&#9;&#9;&#9;C126.1,16.5,127.5,16.6,128.9,16.7c1.3,0.2,2.5,0.5,3.5,0.7c0.6,0.1,1.2,0.3,1.7,0.4c0,0,0,0,0,0c-0.5-0.1-1-0.3-1.6-0.4&#10;&#9;&#9;&#9;&#9;&#9;&#9;&#9;&#9;&#9;&#9;&#9;C131.4,17.2,130.2,16.9,128.9,16.7z" style="fill: rgb(80, 90, 17);"/>
									</g>
									<g>
										<path class="st6" d="M129,20.6c-0.6,0.2-1.3,0.4-2,0.5c-0.7,0.2-1.4,0.3-2.1,0.4c-0.7,0.1-1.4,0.2-2.2,0.2&#10;&#9;&#9;&#9;&#9;&#9;&#9;&#9;&#9;&#9;&#9;&#9;c-0.7,0-1.4,0.1-2.1,0c-0.7,0-1.3-0.1-1.9-0.2c-0.5-0.1-1-0.2-1.5-0.4c0.1,0.1,0.2,0.1,0.3,0.2c0.1,0,0.1,0,0.2,0.1&#10;&#9;&#9;&#9;&#9;&#9;&#9;&#9;&#9;&#9;&#9;&#9;c0.3,0.1,0.6,0.1,1,0.2c0.6,0.1,1.3,0.2,2,0.2c0.7,0,1.4,0,2.1,0c0.7,0,1.4-0.1,2.2-0.3c0.7-0.1,1.4-0.3,2.1-0.4&#10;&#9;&#9;&#9;&#9;&#9;&#9;&#9;&#9;&#9;&#9;&#9;C127.7,21.1,128.4,20.9,129,20.6c1.3-0.3,2.5-0.8,3.5-1.2c0.5-0.2,0.9-0.4,1.3-0.6c0,0,0,0,0.1,0c0,0,0,0,0,0&#10;&#9;&#9;&#9;&#9;&#9;&#9;&#9;&#9;&#9;&#9;&#9;c0,0,0,0,0.1-0.1c-0.4,0.2-0.9,0.4-1.4,0.6C131.5,19.8,130.3,20.2,129,20.6z" style="fill: rgb(80, 90, 17);"/>
									</g>
									<g>
										<path class="st6" d="M124.6,17.3c-1.5,0-2.9,0.1-4.3,0.2c-1.4,0.1-2.6,0.4-3.7,0.7c-0.1,0-0.3,0.1-0.4,0.1&#10;&#9;&#9;&#9;&#9;&#9;&#9;&#9;&#9;&#9;&#9;&#9;c-0.1,0.1-0.1,0.1-0.2,0.2c0.2-0.1,0.4-0.1,0.6-0.2c1-0.3,2.3-0.6,3.7-0.7C121.7,17.4,123.2,17.3,124.6,17.3&#10;&#9;&#9;&#9;&#9;&#9;&#9;&#9;&#9;&#9;&#9;&#9;c2.9,0,5.8,0.3,8,0.5c0.6,0.1,1.2,0.1,1.6,0.2c0,0,0,0,0,0c-0.5-0.1-1-0.1-1.6-0.2C130.5,17.5,127.6,17.3,124.6,17.3z" style="fill: rgb(80, 90, 17);"/>
									</g>
									<g>
										<path class="st6" d="M131.3,19.3c-0.6,0.1-1.3,0.3-2,0.4c-0.7,0.1-1.4,0.2-2.1,0.4c-0.4,0.1-0.7,0.1-1.1,0.2&#10;&#9;&#9;&#9;&#9;&#9;&#9;&#9;&#9;&#9;&#9;&#9;c-0.4,0.1-0.7,0.1-1.1,0.1c-0.7,0.1-1.5,0.2-2.2,0.2c-0.4,0-0.7,0.1-1.1,0.1c-0.4,0-0.7,0-1.1,0c-0.7,0-1.4,0-2,0&#10;&#9;&#9;&#9;&#9;&#9;&#9;&#9;&#9;&#9;&#9;&#9;c-0.3,0-0.6,0-0.9,0c-0.3,0-0.6,0-0.9-0.1c-0.2,0-0.5-0.1-0.7-0.1c0.1,0,0.1,0.1,0.2,0.1c0.2,0,0.4,0,0.5,0.1&#10;&#9;&#9;&#9;&#9;&#9;&#9;&#9;&#9;&#9;&#9;&#9;c0.3,0,0.6,0.1,0.9,0.1c0.3,0,0.6,0,0.9,0c0.6,0,1.3,0,2,0c0.3,0,0.7,0,1.1-0.1c0.4,0,0.7-0.1,1.1-0.1&#10;&#9;&#9;&#9;&#9;&#9;&#9;&#9;&#9;&#9;&#9;&#9;c0.7-0.1,1.5-0.1,2.2-0.2c0.4,0,0.7-0.1,1.1-0.2c0.4,0,0.7-0.1,1.1-0.2c0.7-0.1,1.4-0.2,2.1-0.4&#10;&#9;&#9;&#9;&#9;&#9;&#9;&#9;&#9;&#9;&#9;&#9;C130,19.6,130.7,19.5,131.3,19.3c0.6-0.1,1.2-0.2,1.8-0.3c0.3-0.1,0.6-0.1,0.9-0.2c0,0,0,0,0.1-0.1&#10;&#9;&#9;&#9;&#9;&#9;&#9;&#9;&#9;&#9;&#9;&#9;c-0.3,0.1-0.6,0.1-1,0.2C132.5,19,132,19.1,131.3,19.3z" style="fill: rgb(80, 90, 17);"/>
									</g>
								</g>
							</g>
						</g>
						<g>
							<g>
								<g>
									<path class="st3" d="M122.1,11.1c-1.3,5.2-7,8.3-7,8.3s-3.7-5.4-2.4-10.6c1.3-5.2,7-8.3,7-8.3S123.4,5.8,122.1,11.1z" style="fill: rgb(236, 173, 50);"/>
								</g>
								<g>
									<g>
										<path class="st4" d="M119.6,0.8c0.3,0.5,1,1.6,1.5,3.1c0.7,1.8,1.4,4.5,0.7,7.1c-0.6,2.6-2.5,4.7-3.9,6&#10;&#9;&#9;&#9;&#9;&#9;&#9;&#9;&#9;&#9;&#9;&#9;c-1.2,1.1-2.3,1.8-2.8,2c-0.3-0.5-1-1.6-1.5-3.1c-0.7-1.8-1.4-4.5-0.7-7.1c0.6-2.6,2.5-4.7,3.9-6&#10;&#9;&#9;&#9;&#9;&#9;&#9;&#9;&#9;&#9;&#9;&#9;C118,1.8,119.1,1.1,119.6,0.8 M119.7,0.4c0,0-5.8,3.1-7,8.3c-1.3,5.2,2.4,10.6,2.4,10.6s5.8-3.1,7-8.3&#10;&#9;&#9;&#9;&#9;&#9;&#9;&#9;&#9;&#9;&#9;&#9;C123.4,5.8,119.7,0.4,119.7,0.4L119.7,0.4z" style="fill: rgb(173, 50, 0);"/>
									</g>
									<g>
										<g>
											<path class="st4" d="M117.5,2.4c-0.3,0.4-0.7,0.9-1,1.4c-0.3,0.5-0.7,1-1,1.6c-0.1,0.1-0.2,0.3-0.2,0.4&#10;&#9;&#9;&#9;&#9;&#9;&#9;&#9;&#9;&#9;&#9;&#9;&#9;c0,0.1-0.1,0.1-0.1,0.2c0,0.1-0.1,0.2-0.1,0.2c-0.1,0.2-0.2,0.3-0.2,0.5c-0.1,0.2-0.1,0.3-0.2,0.5&#10;&#9;&#9;&#9;&#9;&#9;&#9;&#9;&#9;&#9;&#9;&#9;&#9;c-0.2,0.3-0.3,0.6-0.4,1c-0.1,0.2-0.1,0.3-0.2,0.5c-0.1,0.2-0.1,0.3-0.2,0.5l-0.1,0.5c0,0.1-0.1,0.2-0.1,0.3l-0.1,0.3&#10;&#9;&#9;&#9;&#9;&#9;&#9;&#9;&#9;&#9;&#9;&#9;&#9;c0,0.2-0.1,0.3-0.1,0.5c0,0.2-0.1,0.3-0.1,0.5c-0.1,0.7-0.2,1.4-0.2,2c0,0.2,0,0.3,0,0.5c0,0.2,0,0.3,0,0.5&#10;&#9;&#9;&#9;&#9;&#9;&#9;&#9;&#9;&#9;&#9;&#9;&#9;c0,0.3,0.1,0.6,0.1,0.9c0,0.3,0.1,0.5,0.1,0.8c0.1,0.2,0.1,0.3,0.2,0.5c0,0,0,0,0,0c0-0.1-0.1-0.3-0.1-0.4&#10;&#9;&#9;&#9;&#9;&#9;&#9;&#9;&#9;&#9;&#9;&#9;&#9;c0-0.3-0.1-0.6-0.1-0.9c0-0.3-0.1-0.6-0.1-0.9c0-0.2,0-0.3,0-0.5c0-0.2,0-0.3,0-0.5c0-0.7,0.1-1.3,0.2-2&#10;&#9;&#9;&#9;&#9;&#9;&#9;&#9;&#9;&#9;&#9;&#9;&#9;c0-0.2,0.1-0.3,0.1-0.5c0-0.2,0.1-0.3,0.1-0.5l0.1-0.3c0-0.1,0-0.2,0.1-0.3l0.1-0.5c0-0.2,0.1-0.3,0.2-0.5&#10;&#9;&#9;&#9;&#9;&#9;&#9;&#9;&#9;&#9;&#9;&#9;&#9;c0.1-0.2,0.1-0.3,0.2-0.5c0.1-0.3,0.2-0.7,0.4-1c0.1-0.2,0.1-0.3,0.2-0.5c0.1-0.2,0.1-0.3,0.2-0.5c0-0.1,0.1-0.2,0.1-0.2&#10;&#9;&#9;&#9;&#9;&#9;&#9;&#9;&#9;&#9;&#9;&#9;&#9;c0-0.1,0.1-0.1,0.1-0.2c0.1-0.1,0.2-0.3,0.2-0.4c0.3-0.6,0.7-1.1,1-1.6C116.9,3.3,117.2,2.8,117.5,2.4&#10;&#9;&#9;&#9;&#9;&#9;&#9;&#9;&#9;&#9;&#9;&#9;&#9;c0.3-0.4,0.6-0.8,0.9-1.1c0,0,0.1-0.1,0.1-0.1c0,0,0,0,0,0c0,0-0.1,0.1-0.1,0.1C118.2,1.6,117.9,2,117.5,2.4z" style="fill: rgb(173, 50, 0);"/>
										</g>
										<g>
											<path class="st4" d="M118.4,16.6c0.2-0.3,0.3-0.5,0.5-0.8c0.1-0.1,0.2-0.3,0.2-0.4c0-0.1,0.1-0.1,0.1-0.2&#10;&#9;&#9;&#9;&#9;&#9;&#9;&#9;&#9;&#9;&#9;&#9;&#9;c0-0.1,0.1-0.1,0.1-0.2c0.3-0.6,0.6-1.3,0.8-1.9c0.1-0.2,0.1-0.3,0.2-0.5c0-0.2,0.1-0.3,0.1-0.5c0.1-0.3,0.2-0.7,0.2-1.1&#10;&#9;&#9;&#9;&#9;&#9;&#9;&#9;&#9;&#9;&#9;&#9;&#9;c0-0.2,0.1-0.4,0.1-0.5c0-0.2,0.1-0.4,0.1-0.5c0-0.2,0-0.4,0.1-0.5c0-0.1,0-0.2,0-0.3l0-0.3c0-0.2,0-0.4,0-0.5&#10;&#9;&#9;&#9;&#9;&#9;&#9;&#9;&#9;&#9;&#9;&#9;&#9;c0-0.2,0-0.4,0-0.5c0-0.3,0-0.7,0-1c0-0.7-0.1-1.3-0.2-1.9c-0.1-0.6-0.2-1.2-0.3-1.7c-0.1-0.5-0.2-1-0.3-1.4&#10;&#9;&#9;&#9;&#9;&#9;&#9;&#9;&#9;&#9;&#9;&#9;&#9;c0-0.1-0.1-0.3-0.1-0.4c0,0,0,0,0,0.1c0,0.1,0.1,0.2,0.1,0.3c0.1,0.4,0.2,0.9,0.3,1.4c0.1,0.5,0.2,1.1,0.2,1.7&#10;&#9;&#9;&#9;&#9;&#9;&#9;&#9;&#9;&#9;&#9;&#9;&#9;c0.1,0.6,0.1,1.3,0.1,1.9c0,0.3,0,0.7,0,1c0,0.2,0,0.3,0,0.5c0,0.2,0,0.4,0,0.5l0,0.3c0,0.1,0,0.2,0,0.3&#10;&#9;&#9;&#9;&#9;&#9;&#9;&#9;&#9;&#9;&#9;&#9;&#9;c0,0.2,0,0.4-0.1,0.5c0,0.2,0,0.4-0.1,0.5c0,0.2,0,0.4-0.1,0.5c-0.1,0.4-0.1,0.7-0.2,1.1c0,0.2-0.1,0.3-0.1,0.5&#10;&#9;&#9;&#9;&#9;&#9;&#9;&#9;&#9;&#9;&#9;&#9;&#9;c-0.1,0.2-0.1,0.3-0.2,0.5c-0.2,0.7-0.5,1.3-0.8,1.9c0,0.1-0.1,0.1-0.1,0.2c0,0.1-0.1,0.1-0.1,0.2&#10;&#9;&#9;&#9;&#9;&#9;&#9;&#9;&#9;&#9;&#9;&#9;&#9;c-0.1,0.1-0.2,0.3-0.2,0.4C118.7,16,118.5,16.3,118.4,16.6c-0.3,0.2-0.4,0.4-0.6,0.7c0,0.1-0.1,0.1-0.1,0.2&#10;&#9;&#9;&#9;&#9;&#9;&#9;&#9;&#9;&#9;&#9;&#9;&#9;c0,0.1-0.1,0.1-0.1,0.2c0.1-0.1,0.2-0.2,0.3-0.2c0,0,0,0,0-0.1C118.1,17.1,118.3,16.9,118.4,16.6z" style="fill: rgb(173, 50, 0);"/>
										</g>
										<g>
											<path class="st4" d="M115.1,19.4C115.1,19.4,115.1,19.3,115.1,19.4l4.6-18.9c0,0,0,0,0,0s0,0,0,0L115.1,19.4&#10;&#9;&#9;&#9;&#9;&#9;&#9;&#9;&#9;&#9;&#9;&#9;&#9;C115.1,19.3,115.1,19.4,115.1,19.4z" style="fill: rgb(173, 50, 0);"/>
										</g>
										<g>
											<path class="st4" d="M116.6,5.4c-0.6,1.2-1.2,2.5-1.6,3.8c-0.5,1.3-0.9,2.7-1.1,4c-0.2,1.3-0.3,2.6-0.2,3.6&#10;&#9;&#9;&#9;&#9;&#9;&#9;&#9;&#9;&#9;&#9;&#9;&#9;c0,0.1,0.1,0.2,0.1,0.3c0-0.1,0-0.2,0-0.3c-0.1-1-0.1-2.3,0.2-3.6c0.2-1.3,0.6-2.7,1.1-4C115.5,7.9,116.1,6.6,116.6,5.4&#10;&#9;&#9;&#9;&#9;&#9;&#9;&#9;&#9;&#9;&#9;&#9;&#9;c0.6-1.2,1.2-2.3,1.7-3.2c0.3-0.6,0.6-1.1,0.9-1.5c0,0,0,0,0,0c-0.3,0.4-0.6,0.9-0.9,1.4C117.8,3.1,117.2,4.2,116.6,5.4z&#10;&#9;&#9;&#9;&#9;&#9;&#9;&#9;&#9;&#9;&#9;&#9;&#9;" style="fill: rgb(173, 50, 0);"/>
										</g>
										<g>
											<path class="st4" d="M120.4,6.4c0,0.7-0.1,1.4-0.1,2.1c-0.1,0.7-0.1,1.4-0.3,2.2c-0.1,0.7-0.3,1.4-0.4,2.1&#10;&#9;&#9;&#9;&#9;&#9;&#9;&#9;&#9;&#9;&#9;&#9;&#9;c-0.2,0.7-0.4,1.4-0.6,2c-0.2,0.6-0.5,1.2-0.8,1.8c-0.3,0.5-0.5,0.9-0.8,1.3c0.1-0.1,0.2-0.1,0.3-0.2&#10;&#9;&#9;&#9;&#9;&#9;&#9;&#9;&#9;&#9;&#9;&#9;&#9;c0-0.1,0.1-0.1,0.1-0.2c0.2-0.3,0.3-0.5,0.5-0.8c0.3-0.6,0.6-1.2,0.8-1.8c0.2-0.6,0.4-1.3,0.6-2c0.2-0.7,0.3-1.4,0.4-2.1&#10;&#9;&#9;&#9;&#9;&#9;&#9;&#9;&#9;&#9;&#9;&#9;&#9;c0.1-0.7,0.2-1.4,0.2-2.2C120.4,7.8,120.4,7.1,120.4,6.4c0.1-1.4,0-2.6-0.1-3.7c0-0.5-0.1-1-0.1-1.4c0,0,0,0,0-0.1&#10;&#9;&#9;&#9;&#9;&#9;&#9;&#9;&#9;&#9;&#9;&#9;&#9;c0,0,0,0,0,0c0,0,0,0,0-0.1c0,0.5,0.1,1,0.1,1.6C120.3,3.8,120.4,5,120.4,6.4z" style="fill: rgb(173, 50, 0);"/>
										</g>
										<g>
											<path class="st4" d="M115.8,9.5c-0.5,1.4-0.8,2.8-1.1,4.1c-0.3,1.3-0.5,2.6-0.5,3.7c0,0.2,0,0.3,0,0.4&#10;&#9;&#9;&#9;&#9;&#9;&#9;&#9;&#9;&#9;&#9;&#9;&#9;c0,0.1,0.1,0.1,0.1,0.2c0-0.2,0-0.4,0-0.7c0-1.1,0.2-2.4,0.4-3.7C115,12.3,115.4,10.9,115.8,9.5c0.9-2.8,2.1-5.5,3-7.5&#10;&#9;&#9;&#9;&#9;&#9;&#9;&#9;&#9;&#9;&#9;&#9;&#9;c0.2-0.6,0.5-1.1,0.7-1.5c0,0,0,0,0,0c-0.2,0.4-0.4,0.9-0.7,1.5C117.9,4.1,116.7,6.7,115.8,9.5z" style="fill: rgb(173, 50, 0);"/>
										</g>
										<g>
											<path class="st4" d="M119.8,3.8c-0.1,0.6-0.2,1.3-0.2,2c-0.1,0.7-0.2,1.4-0.3,2.1c-0.1,0.4-0.1,0.7-0.2,1.1&#10;&#9;&#9;&#9;&#9;&#9;&#9;&#9;&#9;&#9;&#9;&#9;&#9;c-0.1,0.4-0.1,0.7-0.2,1.1c-0.1,0.7-0.3,1.5-0.5,2.2c-0.1,0.4-0.2,0.7-0.3,1.1c-0.1,0.4-0.2,0.7-0.3,1&#10;&#9;&#9;&#9;&#9;&#9;&#9;&#9;&#9;&#9;&#9;&#9;&#9;c-0.2,0.7-0.4,1.3-0.6,1.9c-0.1,0.3-0.2,0.6-0.3,0.9c-0.1,0.3-0.2,0.6-0.3,0.8c-0.1,0.2-0.2,0.4-0.3,0.7&#10;&#9;&#9;&#9;&#9;&#9;&#9;&#9;&#9;&#9;&#9;&#9;&#9;c0.1,0,0.1-0.1,0.2-0.1c0.1-0.2,0.2-0.3,0.2-0.5c0.1-0.3,0.2-0.5,0.3-0.8c0.1-0.3,0.2-0.6,0.3-0.9&#10;&#9;&#9;&#9;&#9;&#9;&#9;&#9;&#9;&#9;&#9;&#9;&#9;c0.2-0.6,0.4-1.3,0.6-1.9c0.1-0.3,0.2-0.7,0.3-1c0.1-0.4,0.2-0.7,0.3-1.1c0.2-0.7,0.3-1.5,0.5-2.2&#10;&#9;&#9;&#9;&#9;&#9;&#9;&#9;&#9;&#9;&#9;&#9;&#9;c0.1-0.4,0.1-0.7,0.2-1.1c0.1-0.4,0.1-0.7,0.2-1.1c0.1-0.7,0.2-1.4,0.3-2.1C119.7,5.1,119.8,4.4,119.8,3.8&#10;&#9;&#9;&#9;&#9;&#9;&#9;&#9;&#9;&#9;&#9;&#9;&#9;c0.1-0.6,0.2-1.2,0.2-1.8c0-0.3,0.1-0.6,0.1-0.9c0,0,0-0.1,0-0.1c0,0.3-0.1,0.7-0.1,1C119.9,2.5,119.8,3.2,119.8,3.8z" style="fill: rgb(173, 50, 0);"/>
										</g>
									</g>
								</g>
							</g>
							<g>
								<path class="st7" d="M122.1,11.1c-1.3,5.2-7,8.3-7,8.3s-3.7-5.4-2.4-10.6c1.3-5.2,7-8.3,7-8.3S123.4,5.8,122.1,11.1z" style="fill: rgb(215, 101, 36);"/>
							</g>
							<g>
								<g>
									<path class="st8" d="M119.6,0.8c0.3,0.5,1,1.6,1.5,3.1c0.7,1.8,1.4,4.5,0.7,7.1c-0.6,2.6-2.5,4.7-3.9,6&#10;&#9;&#9;&#9;&#9;&#9;&#9;&#9;&#9;&#9;&#9;c-1.2,1.1-2.3,1.8-2.8,2c-0.3-0.5-1-1.6-1.5-3.1c-0.7-1.8-1.4-4.5-0.7-7.1c0.6-2.6,2.5-4.7,3.9-6&#10;&#9;&#9;&#9;&#9;&#9;&#9;&#9;&#9;&#9;&#9;C118,1.8,119.1,1.1,119.6,0.8 M119.7,0.4c0,0-5.8,3.1-7,8.3c-1.3,5.2,2.4,10.6,2.4,10.6s5.8-3.1,7-8.3&#10;&#9;&#9;&#9;&#9;&#9;&#9;&#9;&#9;&#9;&#9;C123.4,5.8,119.7,0.4,119.7,0.4L119.7,0.4z" style="fill: rgb(161, 39, 0);"/>
								</g>
								<g>
									<g>
										<path class="st8" d="M117.5,2.4c-0.3,0.4-0.7,0.9-1,1.4c-0.3,0.5-0.7,1-1,1.6c-0.1,0.1-0.2,0.3-0.2,0.4&#10;&#9;&#9;&#9;&#9;&#9;&#9;&#9;&#9;&#9;&#9;&#9;c0,0.1-0.1,0.1-0.1,0.2c0,0.1-0.1,0.2-0.1,0.2c-0.1,0.2-0.2,0.3-0.2,0.5c-0.1,0.2-0.1,0.3-0.2,0.5c-0.2,0.3-0.3,0.6-0.4,1&#10;&#9;&#9;&#9;&#9;&#9;&#9;&#9;&#9;&#9;&#9;&#9;c-0.1,0.2-0.1,0.3-0.2,0.5c-0.1,0.2-0.1,0.3-0.2,0.5l-0.1,0.5c0,0.1-0.1,0.2-0.1,0.3l-0.1,0.3c0,0.2-0.1,0.3-0.1,0.5&#10;&#9;&#9;&#9;&#9;&#9;&#9;&#9;&#9;&#9;&#9;&#9;c0,0.2-0.1,0.3-0.1,0.5c-0.1,0.7-0.2,1.4-0.2,2c0,0.2,0,0.3,0,0.5c0,0.2,0,0.3,0,0.5c0,0.3,0.1,0.6,0.1,0.9&#10;&#9;&#9;&#9;&#9;&#9;&#9;&#9;&#9;&#9;&#9;&#9;c0,0.3,0.1,0.5,0.1,0.8c0.1,0.2,0.1,0.3,0.2,0.5c0,0,0,0,0,0c0-0.1-0.1-0.3-0.1-0.4c0-0.3-0.1-0.6-0.1-0.9&#10;&#9;&#9;&#9;&#9;&#9;&#9;&#9;&#9;&#9;&#9;&#9;c0-0.3-0.1-0.6-0.1-0.9c0-0.2,0-0.3,0-0.5c0-0.2,0-0.3,0-0.5c0-0.7,0.1-1.3,0.2-2c0-0.2,0.1-0.3,0.1-0.5&#10;&#9;&#9;&#9;&#9;&#9;&#9;&#9;&#9;&#9;&#9;&#9;c0-0.2,0.1-0.3,0.1-0.5l0.1-0.3c0-0.1,0-0.2,0.1-0.3l0.1-0.5c0-0.2,0.1-0.3,0.2-0.5c0.1-0.2,0.1-0.3,0.2-0.5&#10;&#9;&#9;&#9;&#9;&#9;&#9;&#9;&#9;&#9;&#9;&#9;c0.1-0.3,0.2-0.7,0.4-1c0.1-0.2,0.1-0.3,0.2-0.5c0.1-0.2,0.1-0.3,0.2-0.5c0-0.1,0.1-0.2,0.1-0.2c0-0.1,0.1-0.1,0.1-0.2&#10;&#9;&#9;&#9;&#9;&#9;&#9;&#9;&#9;&#9;&#9;&#9;c0.1-0.1,0.2-0.3,0.2-0.4c0.3-0.6,0.7-1.1,1-1.6C116.9,3.3,117.2,2.8,117.5,2.4c0.3-0.4,0.6-0.8,0.9-1.1&#10;&#9;&#9;&#9;&#9;&#9;&#9;&#9;&#9;&#9;&#9;&#9;c0,0,0.1-0.1,0.1-0.1c0,0,0,0,0,0c0,0-0.1,0.1-0.1,0.1C118.2,1.6,117.9,2,117.5,2.4z" style="fill: rgb(161, 39, 0);"/>
									</g>
									<g>
										<path class="st8" d="M118.4,16.6c0.2-0.3,0.3-0.5,0.5-0.8c0.1-0.1,0.2-0.3,0.2-0.4c0-0.1,0.1-0.1,0.1-0.2&#10;&#9;&#9;&#9;&#9;&#9;&#9;&#9;&#9;&#9;&#9;&#9;c0-0.1,0.1-0.1,0.1-0.2c0.3-0.6,0.6-1.3,0.8-1.9c0.1-0.2,0.1-0.3,0.2-0.5c0-0.2,0.1-0.3,0.1-0.5c0.1-0.3,0.2-0.7,0.2-1.1&#10;&#9;&#9;&#9;&#9;&#9;&#9;&#9;&#9;&#9;&#9;&#9;c0-0.2,0.1-0.4,0.1-0.5c0-0.2,0.1-0.4,0.1-0.5c0-0.2,0-0.4,0.1-0.5c0-0.1,0-0.2,0-0.3l0-0.3c0-0.2,0-0.4,0-0.5&#10;&#9;&#9;&#9;&#9;&#9;&#9;&#9;&#9;&#9;&#9;&#9;c0-0.2,0-0.4,0-0.5c0-0.3,0-0.7,0-1c0-0.7-0.1-1.3-0.2-1.9c-0.1-0.6-0.2-1.2-0.3-1.7c-0.1-0.5-0.2-1-0.3-1.4&#10;&#9;&#9;&#9;&#9;&#9;&#9;&#9;&#9;&#9;&#9;&#9;c0-0.1-0.1-0.3-0.1-0.4c0,0,0,0,0,0.1c0,0.1,0.1,0.2,0.1,0.3c0.1,0.4,0.2,0.9,0.3,1.4c0.1,0.5,0.2,1.1,0.2,1.7&#10;&#9;&#9;&#9;&#9;&#9;&#9;&#9;&#9;&#9;&#9;&#9;c0.1,0.6,0.1,1.3,0.1,1.9c0,0.3,0,0.7,0,1c0,0.2,0,0.3,0,0.5c0,0.2,0,0.4,0,0.5l0,0.3c0,0.1,0,0.2,0,0.3&#10;&#9;&#9;&#9;&#9;&#9;&#9;&#9;&#9;&#9;&#9;&#9;c0,0.2,0,0.4-0.1,0.5c0,0.2,0,0.4-0.1,0.5c0,0.2,0,0.4-0.1,0.5c-0.1,0.4-0.1,0.7-0.2,1.1c0,0.2-0.1,0.3-0.1,0.5&#10;&#9;&#9;&#9;&#9;&#9;&#9;&#9;&#9;&#9;&#9;&#9;c-0.1,0.2-0.1,0.3-0.2,0.5c-0.2,0.7-0.5,1.3-0.8,1.9c0,0.1-0.1,0.1-0.1,0.2c0,0.1-0.1,0.1-0.1,0.2&#10;&#9;&#9;&#9;&#9;&#9;&#9;&#9;&#9;&#9;&#9;&#9;c-0.1,0.1-0.2,0.3-0.2,0.4C118.7,16,118.5,16.3,118.4,16.6c-0.3,0.2-0.4,0.4-0.6,0.7c0,0.1-0.1,0.1-0.1,0.2&#10;&#9;&#9;&#9;&#9;&#9;&#9;&#9;&#9;&#9;&#9;&#9;c0,0.1-0.1,0.1-0.1,0.2c0.1-0.1,0.2-0.2,0.3-0.2c0,0,0,0,0-0.1C118.1,17.1,118.3,16.9,118.4,16.6z" style="fill: rgb(161, 39, 0);"/>
									</g>
									<g>
										<path class="st8" d="M115.1,19.4C115.1,19.4,115.1,19.3,115.1,19.4l4.6-18.9c0,0,0,0,0,0s0,0,0,0L115.1,19.4&#10;&#9;&#9;&#9;&#9;&#9;&#9;&#9;&#9;&#9;&#9;&#9;C115.1,19.3,115.1,19.4,115.1,19.4z" style="fill: rgb(161, 39, 0);"/>
									</g>
									<g>
										<path class="st8" d="M116.6,5.4c-0.6,1.2-1.2,2.5-1.6,3.8c-0.5,1.3-0.9,2.7-1.1,4c-0.2,1.3-0.3,2.6-0.2,3.6&#10;&#9;&#9;&#9;&#9;&#9;&#9;&#9;&#9;&#9;&#9;&#9;c0,0.1,0.1,0.2,0.1,0.3c0-0.1,0-0.2,0-0.3c-0.1-1-0.1-2.3,0.2-3.6c0.2-1.3,0.6-2.7,1.1-4C115.5,7.9,116.1,6.6,116.6,5.4&#10;&#9;&#9;&#9;&#9;&#9;&#9;&#9;&#9;&#9;&#9;&#9;c0.6-1.2,1.2-2.3,1.7-3.2c0.3-0.6,0.6-1.1,0.9-1.5c0,0,0,0,0,0c-0.3,0.4-0.6,0.9-0.9,1.4C117.8,3.1,117.2,4.2,116.6,5.4z" style="fill: rgb(161, 39, 0);"/>
									</g>
									<g>
										<path class="st8" d="M120.4,6.4c0,0.7-0.1,1.4-0.1,2.1c-0.1,0.7-0.1,1.4-0.3,2.2c-0.1,0.7-0.3,1.4-0.4,2.1&#10;&#9;&#9;&#9;&#9;&#9;&#9;&#9;&#9;&#9;&#9;&#9;c-0.2,0.7-0.4,1.4-0.6,2c-0.2,0.6-0.5,1.2-0.8,1.8c-0.3,0.5-0.5,0.9-0.8,1.3c0.1-0.1,0.2-0.1,0.3-0.2&#10;&#9;&#9;&#9;&#9;&#9;&#9;&#9;&#9;&#9;&#9;&#9;c0-0.1,0.1-0.1,0.1-0.2c0.2-0.3,0.3-0.5,0.5-0.8c0.3-0.6,0.6-1.2,0.8-1.8c0.2-0.6,0.4-1.3,0.6-2c0.2-0.7,0.3-1.4,0.4-2.1&#10;&#9;&#9;&#9;&#9;&#9;&#9;&#9;&#9;&#9;&#9;&#9;c0.1-0.7,0.2-1.4,0.2-2.2C120.4,7.8,120.4,7.1,120.4,6.4c0.1-1.4,0-2.6-0.1-3.7c0-0.5-0.1-1-0.1-1.4c0,0,0,0,0-0.1&#10;&#9;&#9;&#9;&#9;&#9;&#9;&#9;&#9;&#9;&#9;&#9;c0,0,0,0,0,0c0,0,0,0,0-0.1c0,0.5,0.1,1,0.1,1.6C120.3,3.8,120.4,5,120.4,6.4z" style="fill: rgb(161, 39, 0);"/>
									</g>
									<g>
										<path class="st8" d="M115.8,9.5c-0.5,1.4-0.8,2.8-1.1,4.1c-0.3,1.3-0.5,2.6-0.5,3.7c0,0.2,0,0.3,0,0.4&#10;&#9;&#9;&#9;&#9;&#9;&#9;&#9;&#9;&#9;&#9;&#9;c0,0.1,0.1,0.1,0.1,0.2c0-0.2,0-0.4,0-0.7c0-1.1,0.2-2.4,0.4-3.7C115,12.3,115.4,10.9,115.8,9.5c0.9-2.8,2.1-5.5,3-7.5&#10;&#9;&#9;&#9;&#9;&#9;&#9;&#9;&#9;&#9;&#9;&#9;c0.2-0.6,0.5-1.1,0.7-1.5c0,0,0,0,0,0c-0.2,0.4-0.4,0.9-0.7,1.5C117.9,4.1,116.7,6.7,115.8,9.5z" style="fill: rgb(161, 39, 0);"/>
									</g>
									<g>
										<path class="st8" d="M119.8,3.8c-0.1,0.6-0.2,1.3-0.2,2c-0.1,0.7-0.2,1.4-0.3,2.1c-0.1,0.4-0.1,0.7-0.2,1.1&#10;&#9;&#9;&#9;&#9;&#9;&#9;&#9;&#9;&#9;&#9;&#9;c-0.1,0.4-0.1,0.7-0.2,1.1c-0.1,0.7-0.3,1.5-0.5,2.2c-0.1,0.4-0.2,0.7-0.3,1.1c-0.1,0.4-0.2,0.7-0.3,1&#10;&#9;&#9;&#9;&#9;&#9;&#9;&#9;&#9;&#9;&#9;&#9;c-0.2,0.7-0.4,1.3-0.6,1.9c-0.1,0.3-0.2,0.6-0.3,0.9c-0.1,0.3-0.2,0.6-0.3,0.8c-0.1,0.2-0.2,0.4-0.3,0.7&#10;&#9;&#9;&#9;&#9;&#9;&#9;&#9;&#9;&#9;&#9;&#9;c0.1,0,0.1-0.1,0.2-0.1c0.1-0.2,0.2-0.3,0.2-0.5c0.1-0.3,0.2-0.5,0.3-0.8c0.1-0.3,0.2-0.6,0.3-0.9&#10;&#9;&#9;&#9;&#9;&#9;&#9;&#9;&#9;&#9;&#9;&#9;c0.2-0.6,0.4-1.3,0.6-1.9c0.1-0.3,0.2-0.7,0.3-1c0.1-0.4,0.2-0.7,0.3-1.1c0.2-0.7,0.3-1.5,0.5-2.2&#10;&#9;&#9;&#9;&#9;&#9;&#9;&#9;&#9;&#9;&#9;&#9;c0.1-0.4,0.1-0.7,0.2-1.1c0.1-0.4,0.1-0.7,0.2-1.1c0.1-0.7,0.2-1.4,0.3-2.1C119.7,5.1,119.8,4.4,119.8,3.8&#10;&#9;&#9;&#9;&#9;&#9;&#9;&#9;&#9;&#9;&#9;&#9;c0.1-0.6,0.2-1.2,0.2-1.8c0-0.3,0.1-0.6,0.1-0.9c0,0,0-0.1,0-0.1c0,0.3-0.1,0.7-0.1,1C119.9,2.5,119.8,3.2,119.8,3.8z" style="fill: rgb(161, 39, 0);"/>
									</g>
								</g>
							</g>
						</g>
						<g>
							<g>
								<path class="st3" d="M109.1,10c4.6,2.8,5.7,9.3,5.7,9.3s-6.3,1.9-10.8-0.9C99.4,15.5,98.3,9,98.3,9S104.5,7.2,109.1,10z" style="fill: rgb(236, 173, 50);"/>
							</g>
							<g>
								<g>
									<path class="st4" d="M98.6,9.2c0.5-0.1,1.8-0.4,3.4-0.5c1.9-0.1,4.7,0.1,7,1.5c2.3,1.4,3.7,3.8,4.5,5.5&#10;&#9;&#9;&#9;&#9;&#9;&#9;&#9;&#9;&#9;&#9;c0.6,1.5,1,2.8,1.1,3.3c-0.5,0.1-1.8,0.4-3.4,0.5c-1.9,0.1-4.7-0.1-7-1.5c-2.3-1.4-3.7-3.8-4.5-5.6&#10;&#9;&#9;&#9;&#9;&#9;&#9;&#9;&#9;&#9;&#9;C99,11,98.7,9.8,98.6,9.2 M98.3,9c0,0,1.1,6.4,5.7,9.3c4.6,2.8,10.8,0.9,10.8,0.9s-1.1-6.4-5.7-9.3&#10;&#9;&#9;&#9;&#9;&#9;&#9;&#9;&#9;&#9;&#9;C104.5,7.2,98.3,9,98.3,9L98.3,9z" style="fill: rgb(173, 50, 0);"/>
								</g>
								<g>
									<g>
										<path class="st4" d="M99.4,11.7c0.3,0.4,0.6,0.9,1,1.4c0.4,0.5,0.8,1,1.2,1.5c0.1,0.1,0.2,0.2,0.3,0.4&#10;&#9;&#9;&#9;&#9;&#9;&#9;&#9;&#9;&#9;&#9;&#9;c0.1,0.1,0.1,0.1,0.2,0.2c0.1,0.1,0.1,0.1,0.2,0.2c0.1,0.1,0.2,0.2,0.4,0.4c0.1,0.1,0.3,0.2,0.4,0.3&#10;&#9;&#9;&#9;&#9;&#9;&#9;&#9;&#9;&#9;&#9;&#9;c0.3,0.2,0.5,0.5,0.8,0.7c0.1,0.1,0.3,0.2,0.4,0.3c0.1,0.1,0.3,0.2,0.4,0.3l0.4,0.3c0.1,0,0.1,0.1,0.2,0.1l0.2,0.1&#10;&#9;&#9;&#9;&#9;&#9;&#9;&#9;&#9;&#9;&#9;&#9;c0.2,0.1,0.3,0.2,0.5,0.3c0.2,0.1,0.3,0.2,0.5,0.2c0.6,0.3,1.3,0.6,1.9,0.8c0.2,0.1,0.3,0.1,0.5,0.2&#10;&#9;&#9;&#9;&#9;&#9;&#9;&#9;&#9;&#9;&#9;&#9;c0.2,0,0.3,0.1,0.5,0.1c0.3,0.1,0.6,0.1,0.9,0.2c0.3,0,0.5,0.1,0.8,0.1c0.2,0,0.4,0,0.5,0c0,0,0,0,0,0c-0.1,0-0.3,0-0.4,0&#10;&#9;&#9;&#9;&#9;&#9;&#9;&#9;&#9;&#9;&#9;&#9;c-0.3,0-0.6-0.1-0.9-0.1c-0.3-0.1-0.6-0.1-0.9-0.2c-0.2,0-0.3-0.1-0.5-0.1c-0.2,0-0.3-0.1-0.5-0.1&#10;&#9;&#9;&#9;&#9;&#9;&#9;&#9;&#9;&#9;&#9;&#9;c-0.6-0.2-1.3-0.5-1.9-0.8c-0.2-0.1-0.3-0.2-0.5-0.2c-0.1-0.1-0.3-0.2-0.5-0.3l-0.2-0.1c-0.1,0-0.1-0.1-0.2-0.1l-0.4-0.3&#10;&#9;&#9;&#9;&#9;&#9;&#9;&#9;&#9;&#9;&#9;&#9;c-0.1-0.1-0.3-0.2-0.4-0.3c-0.1-0.1-0.3-0.2-0.4-0.3c-0.3-0.2-0.5-0.4-0.8-0.7c-0.1-0.1-0.3-0.2-0.4-0.3&#10;&#9;&#9;&#9;&#9;&#9;&#9;&#9;&#9;&#9;&#9;&#9;c-0.1-0.1-0.2-0.2-0.4-0.4c-0.1-0.1-0.1-0.1-0.2-0.2c-0.1-0.1-0.1-0.1-0.2-0.2c-0.1-0.1-0.2-0.2-0.3-0.4&#10;&#9;&#9;&#9;&#9;&#9;&#9;&#9;&#9;&#9;&#9;&#9;c-0.4-0.5-0.9-1-1.2-1.4C100.1,12.6,99.8,12.1,99.4,11.7c-0.3-0.4-0.5-0.8-0.8-1.2c0-0.1-0.1-0.1-0.1-0.1c0,0,0,0,0,0&#10;&#9;&#9;&#9;&#9;&#9;&#9;&#9;&#9;&#9;&#9;&#9;c0,0,0,0.1,0.1,0.1C98.9,10.8,99.1,11.2,99.4,11.7z" style="fill: rgb(173, 50, 0);"/>
									</g>
									<g>
										<path class="st4" d="M113.3,15.2c-0.2-0.2-0.4-0.5-0.6-0.7c-0.1-0.1-0.2-0.2-0.3-0.4c-0.1-0.1-0.1-0.1-0.2-0.2&#10;&#9;&#9;&#9;&#9;&#9;&#9;&#9;&#9;&#9;&#9;&#9;c-0.1-0.1-0.1-0.1-0.2-0.2c-0.5-0.5-1-0.9-1.6-1.3c-0.1-0.1-0.3-0.2-0.4-0.3c-0.2-0.1-0.3-0.2-0.5-0.3&#10;&#9;&#9;&#9;&#9;&#9;&#9;&#9;&#9;&#9;&#9;&#9;c-0.3-0.2-0.6-0.4-0.9-0.5c-0.2-0.1-0.3-0.2-0.5-0.2c-0.2-0.1-0.3-0.2-0.5-0.2c-0.2-0.1-0.3-0.1-0.5-0.2&#10;&#9;&#9;&#9;&#9;&#9;&#9;&#9;&#9;&#9;&#9;&#9;c-0.1,0-0.2-0.1-0.2-0.1l-0.2-0.1c-0.2-0.1-0.3-0.1-0.5-0.2c-0.2-0.1-0.3-0.1-0.5-0.2c-0.3-0.1-0.7-0.2-1-0.3&#10;&#9;&#9;&#9;&#9;&#9;&#9;&#9;&#9;&#9;&#9;&#9;c-0.7-0.2-1.3-0.3-1.9-0.5c-0.6-0.1-1.2-0.2-1.7-0.3c-0.5-0.1-1-0.1-1.5-0.1c-0.1,0-0.3,0-0.4,0c0,0,0,0,0.1,0&#10;&#9;&#9;&#9;&#9;&#9;&#9;&#9;&#9;&#9;&#9;&#9;c0.1,0,0.2,0,0.3,0c0.4,0,0.9,0.1,1.5,0.2c0.5,0.1,1.1,0.2,1.7,0.3c0.6,0.1,1.2,0.3,1.9,0.5c0.3,0.1,0.7,0.2,1,0.3&#10;&#9;&#9;&#9;&#9;&#9;&#9;&#9;&#9;&#9;&#9;&#9;c0.2,0.1,0.3,0.1,0.5,0.2c0.2,0.1,0.3,0.1,0.5,0.2l0.2,0.1c0.1,0,0.2,0.1,0.2,0.1c0.2,0.1,0.3,0.1,0.5,0.2&#10;&#9;&#9;&#9;&#9;&#9;&#9;&#9;&#9;&#9;&#9;&#9;c0.2,0.1,0.3,0.2,0.5,0.2c0.2,0.1,0.3,0.2,0.5,0.2c0.3,0.2,0.6,0.3,0.9,0.5c0.2,0.1,0.3,0.2,0.5,0.3&#10;&#9;&#9;&#9;&#9;&#9;&#9;&#9;&#9;&#9;&#9;&#9;c0.1,0.1,0.3,0.2,0.4,0.3c0.6,0.4,1.1,0.9,1.6,1.3c0.1,0.1,0.1,0.1,0.2,0.2c0.1,0.1,0.1,0.1,0.2,0.2&#10;&#9;&#9;&#9;&#9;&#9;&#9;&#9;&#9;&#9;&#9;&#9;c0.1,0.1,0.2,0.2,0.3,0.4C112.8,14.8,113,15,113.3,15.2c0.1,0.3,0.3,0.5,0.4,0.8c0,0.1,0.1,0.1,0.1,0.2&#10;&#9;&#9;&#9;&#9;&#9;&#9;&#9;&#9;&#9;&#9;&#9;c0,0.1,0.1,0.1,0.1,0.2c0-0.1-0.1-0.2-0.1-0.3c0,0,0,0,0-0.1C113.6,15.7,113.5,15.5,113.3,15.2z" style="fill: rgb(173, 50, 0);"/>
									</g>
									<g>
										<path class="st4" d="M114.8,19.3C114.8,19.3,114.8,19.2,114.8,19.3L98.3,9c0,0,0,0,0,0s0,0,0,0L114.8,19.3&#10;&#9;&#9;&#9;&#9;&#9;&#9;&#9;&#9;&#9;&#9;&#9;C114.8,19.3,114.8,19.3,114.8,19.3z" style="fill: rgb(173, 50, 0);"/>
									</g>
									<g>
										<path class="st4" d="M102,13.5c0.9,0.9,2,1.9,3.1,2.7c1.1,0.9,2.3,1.7,3.5,2.3c1.2,0.6,2.3,1,3.4,1.3c0.1,0,0.2,0,0.3,0&#10;&#9;&#9;&#9;&#9;&#9;&#9;&#9;&#9;&#9;&#9;&#9;c-0.1,0-0.2,0-0.3-0.1c-1-0.2-2.2-0.6-3.4-1.3c-1.2-0.6-2.4-1.4-3.5-2.2C104,15.3,103,14.4,102,13.5&#10;&#9;&#9;&#9;&#9;&#9;&#9;&#9;&#9;&#9;&#9;&#9;c-0.9-0.9-1.8-1.8-2.5-2.6c-0.4-0.5-0.8-0.9-1.1-1.3c0,0,0,0,0,0c0.3,0.4,0.7,0.8,1.1,1.3C100.2,11.7,101,12.6,102,13.5z" style="fill: rgb(173, 50, 0);"/>
									</g>
									<g>
										<path class="st4" d="M104.1,10.2c0.6,0.2,1.3,0.5,2,0.8c0.7,0.3,1.3,0.6,2,0.9c0.6,0.3,1.3,0.7,1.9,1.1&#10;&#9;&#9;&#9;&#9;&#9;&#9;&#9;&#9;&#9;&#9;&#9;c0.6,0.4,1.2,0.8,1.7,1.2c0.5,0.4,1,0.9,1.4,1.3c0.4,0.4,0.7,0.8,1,1.2c0-0.1-0.1-0.2-0.1-0.3c0-0.1-0.1-0.1-0.1-0.2&#10;&#9;&#9;&#9;&#9;&#9;&#9;&#9;&#9;&#9;&#9;&#9;c-0.2-0.2-0.4-0.5-0.6-0.7c-0.4-0.5-0.9-0.9-1.5-1.3c-0.5-0.4-1.1-0.8-1.7-1.2c-0.6-0.4-1.2-0.7-1.9-1.1&#10;&#9;&#9;&#9;&#9;&#9;&#9;&#9;&#9;&#9;&#9;&#9;c-0.7-0.3-1.3-0.6-2-0.9C105.5,10.7,104.8,10.4,104.1,10.2c-1.3-0.5-2.5-0.8-3.5-1.1c-0.5-0.1-1-0.2-1.4-0.3&#10;&#9;&#9;&#9;&#9;&#9;&#9;&#9;&#9;&#9;&#9;&#9;c0,0,0,0-0.1,0c0,0,0,0,0,0c0,0-0.1,0-0.1,0c0.4,0.1,1,0.2,1.5,0.3C101.6,9.5,102.9,9.8,104.1,10.2z" style="fill: rgb(173, 50, 0);"/>
									</g>
									<g>
										<path class="st4" d="M105.7,15.5c1.2,0.9,2.4,1.7,3.6,2.4c1.2,0.7,2.3,1.2,3.4,1.6c0.1,0.1,0.3,0.1,0.4,0.1&#10;&#9;&#9;&#9;&#9;&#9;&#9;&#9;&#9;&#9;&#9;&#9;c0.1,0,0.2,0,0.2,0c-0.2-0.1-0.4-0.1-0.6-0.2c-1-0.3-2.2-0.9-3.4-1.6C108.1,17.1,106.9,16.3,105.7,15.5&#10;&#9;&#9;&#9;&#9;&#9;&#9;&#9;&#9;&#9;&#9;&#9;c-2.3-1.8-4.6-3.6-6.2-5.1c-0.5-0.4-0.9-0.8-1.2-1.1c0,0,0,0,0,0c0.3,0.3,0.7,0.7,1.2,1.1&#10;&#9;&#9;&#9;&#9;&#9;&#9;&#9;&#9;&#9;&#9;&#9;C101.1,11.9,103.3,13.8,105.7,15.5z" style="fill: rgb(173, 50, 0);"/>
									</g>
									<g>
										<path class="st4" d="M101.5,10c0.6,0.3,1.2,0.5,1.8,0.9c0.6,0.3,1.3,0.6,1.9,1c0.3,0.2,0.7,0.3,1,0.5&#10;&#9;&#9;&#9;&#9;&#9;&#9;&#9;&#9;&#9;&#9;&#9;c0.3,0.2,0.7,0.4,1,0.5c0.7,0.4,1.3,0.7,1.9,1.1c0.3,0.2,0.6,0.4,0.9,0.6c0.3,0.2,0.6,0.4,0.9,0.6&#10;&#9;&#9;&#9;&#9;&#9;&#9;&#9;&#9;&#9;&#9;&#9;c0.6,0.4,1.1,0.8,1.6,1.2c0.3,0.2,0.5,0.4,0.7,0.6c0.2,0.2,0.5,0.4,0.7,0.6c0.2,0.2,0.4,0.3,0.5,0.5c0-0.1,0-0.1-0.1-0.2&#10;&#9;&#9;&#9;&#9;&#9;&#9;&#9;&#9;&#9;&#9;&#9;c-0.1-0.1-0.3-0.2-0.4-0.4c-0.2-0.2-0.4-0.4-0.7-0.6c-0.2-0.2-0.5-0.4-0.7-0.6c-0.5-0.4-1.1-0.8-1.6-1.2&#10;&#9;&#9;&#9;&#9;&#9;&#9;&#9;&#9;&#9;&#9;&#9;c-0.3-0.2-0.6-0.4-0.9-0.6c-0.3-0.2-0.6-0.4-0.9-0.6c-0.6-0.4-1.3-0.8-1.9-1.1c-0.3-0.2-0.7-0.4-1-0.5&#10;&#9;&#9;&#9;&#9;&#9;&#9;&#9;&#9;&#9;&#9;&#9;c-0.3-0.2-0.7-0.3-1-0.5c-0.7-0.3-1.3-0.7-1.9-1C102.7,10.5,102.1,10.2,101.5,10c-0.6-0.3-1.1-0.6-1.6-0.8&#10;&#9;&#9;&#9;&#9;&#9;&#9;&#9;&#9;&#9;&#9;&#9;C99.5,9.1,99.2,9,99,8.9c0,0-0.1,0-0.1,0c0.3,0.1,0.6,0.3,0.9,0.4C100.3,9.5,100.9,9.7,101.5,10z" style="fill: rgb(173, 50, 0);"/>
									</g>
								</g>
							</g>
						</g>
						<g>
							<path class="st9" d="M109.1,10c4.6,2.8,5.7,9.3,5.7,9.3s-6.3,1.9-10.8-0.9C99.4,15.5,98.3,9,98.3,9S104.5,7.2,109.1,10z" style="fill: rgb(156, 118, 31);"/>
						</g>
						<g>
							<g>
								<path class="st10" d="M98.6,9.2c0.5-0.1,1.8-0.4,3.4-0.5c1.9-0.1,4.7,0.1,7,1.5c2.3,1.4,3.7,3.8,4.5,5.5&#10;&#9;&#9;&#9;&#9;&#9;&#9;&#9;&#9;&#9;c0.6,1.5,1,2.8,1.1,3.3c-0.5,0.1-1.8,0.4-3.4,0.5c-1.9,0.1-4.7-0.1-7-1.5c-2.3-1.4-3.7-3.8-4.5-5.6C99,11,98.7,9.8,98.6,9.2&#10;&#9;&#9;&#9;&#9;&#9;&#9;&#9;&#9;&#9; M98.3,9c0,0,1.1,6.4,5.7,9.3c4.6,2.8,10.8,0.9,10.8,0.9s-1.1-6.4-5.7-9.3C104.5,7.2,98.3,9,98.3,9L98.3,9z" style="fill: rgb(119, 77, 12);"/>
							</g>
							<g>
								<g>
									<path class="st10" d="M99.4,11.7c0.3,0.4,0.6,0.9,1,1.4c0.4,0.5,0.8,1,1.2,1.5c0.1,0.1,0.2,0.2,0.3,0.4&#10;&#9;&#9;&#9;&#9;&#9;&#9;&#9;&#9;&#9;&#9;c0.1,0.1,0.1,0.1,0.2,0.2c0.1,0.1,0.1,0.1,0.2,0.2c0.1,0.1,0.2,0.2,0.4,0.4c0.1,0.1,0.3,0.2,0.4,0.3&#10;&#9;&#9;&#9;&#9;&#9;&#9;&#9;&#9;&#9;&#9;c0.3,0.2,0.5,0.5,0.8,0.7c0.1,0.1,0.3,0.2,0.4,0.3c0.1,0.1,0.3,0.2,0.4,0.3l0.4,0.3c0.1,0,0.1,0.1,0.2,0.1l0.2,0.1&#10;&#9;&#9;&#9;&#9;&#9;&#9;&#9;&#9;&#9;&#9;c0.2,0.1,0.3,0.2,0.5,0.3c0.2,0.1,0.3,0.2,0.5,0.2c0.6,0.3,1.3,0.6,1.9,0.8c0.2,0.1,0.3,0.1,0.5,0.2c0.2,0,0.3,0.1,0.5,0.1&#10;&#9;&#9;&#9;&#9;&#9;&#9;&#9;&#9;&#9;&#9;c0.3,0.1,0.6,0.1,0.9,0.2c0.3,0,0.5,0.1,0.8,0.1c0.2,0,0.4,0,0.5,0c0,0,0,0,0,0c-0.1,0-0.3,0-0.4,0c-0.3,0-0.6-0.1-0.9-0.1&#10;&#9;&#9;&#9;&#9;&#9;&#9;&#9;&#9;&#9;&#9;c-0.3-0.1-0.6-0.1-0.9-0.2c-0.2,0-0.3-0.1-0.5-0.1c-0.2,0-0.3-0.1-0.5-0.1c-0.6-0.2-1.3-0.5-1.9-0.8&#10;&#9;&#9;&#9;&#9;&#9;&#9;&#9;&#9;&#9;&#9;c-0.2-0.1-0.3-0.2-0.5-0.2c-0.1-0.1-0.3-0.2-0.5-0.3l-0.2-0.1c-0.1,0-0.1-0.1-0.2-0.1l-0.4-0.3c-0.1-0.1-0.3-0.2-0.4-0.3&#10;&#9;&#9;&#9;&#9;&#9;&#9;&#9;&#9;&#9;&#9;c-0.1-0.1-0.3-0.2-0.4-0.3c-0.3-0.2-0.5-0.4-0.8-0.7c-0.1-0.1-0.3-0.2-0.4-0.3c-0.1-0.1-0.2-0.2-0.4-0.4&#10;&#9;&#9;&#9;&#9;&#9;&#9;&#9;&#9;&#9;&#9;c-0.1-0.1-0.1-0.1-0.2-0.2c-0.1-0.1-0.1-0.1-0.2-0.2c-0.1-0.1-0.2-0.2-0.3-0.4c-0.4-0.5-0.9-1-1.2-1.4&#10;&#9;&#9;&#9;&#9;&#9;&#9;&#9;&#9;&#9;&#9;C100.1,12.6,99.8,12.1,99.4,11.7c-0.3-0.4-0.5-0.8-0.8-1.2c0-0.1-0.1-0.1-0.1-0.1c0,0,0,0,0,0c0,0,0,0.1,0.1,0.1&#10;&#9;&#9;&#9;&#9;&#9;&#9;&#9;&#9;&#9;&#9;C98.9,10.8,99.1,11.2,99.4,11.7z" style="fill: rgb(119, 77, 12);"/>
								</g>
								<g>
									<path class="st10" d="M113.3,15.2c-0.2-0.2-0.4-0.5-0.6-0.7c-0.1-0.1-0.2-0.2-0.3-0.4c-0.1-0.1-0.1-0.1-0.2-0.2&#10;&#9;&#9;&#9;&#9;&#9;&#9;&#9;&#9;&#9;&#9;c-0.1-0.1-0.1-0.1-0.2-0.2c-0.5-0.5-1-0.9-1.6-1.3c-0.1-0.1-0.3-0.2-0.4-0.3c-0.2-0.1-0.3-0.2-0.5-0.3&#10;&#9;&#9;&#9;&#9;&#9;&#9;&#9;&#9;&#9;&#9;c-0.3-0.2-0.6-0.4-0.9-0.5c-0.2-0.1-0.3-0.2-0.5-0.2c-0.2-0.1-0.3-0.2-0.5-0.2c-0.2-0.1-0.3-0.1-0.5-0.2&#10;&#9;&#9;&#9;&#9;&#9;&#9;&#9;&#9;&#9;&#9;c-0.1,0-0.2-0.1-0.2-0.1l-0.2-0.1c-0.2-0.1-0.3-0.1-0.5-0.2c-0.2-0.1-0.3-0.1-0.5-0.2c-0.3-0.1-0.7-0.2-1-0.3&#10;&#9;&#9;&#9;&#9;&#9;&#9;&#9;&#9;&#9;&#9;c-0.7-0.2-1.3-0.3-1.9-0.5c-0.6-0.1-1.2-0.2-1.7-0.3c-0.5-0.1-1-0.1-1.5-0.1c-0.1,0-0.3,0-0.4,0c0,0,0,0,0.1,0&#10;&#9;&#9;&#9;&#9;&#9;&#9;&#9;&#9;&#9;&#9;c0.1,0,0.2,0,0.3,0c0.4,0,0.9,0.1,1.5,0.2c0.5,0.1,1.1,0.2,1.7,0.3c0.6,0.1,1.2,0.3,1.9,0.5c0.3,0.1,0.7,0.2,1,0.3&#10;&#9;&#9;&#9;&#9;&#9;&#9;&#9;&#9;&#9;&#9;c0.2,0.1,0.3,0.1,0.5,0.2c0.2,0.1,0.3,0.1,0.5,0.2l0.2,0.1c0.1,0,0.2,0.1,0.2,0.1c0.2,0.1,0.3,0.1,0.5,0.2&#10;&#9;&#9;&#9;&#9;&#9;&#9;&#9;&#9;&#9;&#9;c0.2,0.1,0.3,0.2,0.5,0.2c0.2,0.1,0.3,0.2,0.5,0.2c0.3,0.2,0.6,0.3,0.9,0.5c0.2,0.1,0.3,0.2,0.5,0.3&#10;&#9;&#9;&#9;&#9;&#9;&#9;&#9;&#9;&#9;&#9;c0.1,0.1,0.3,0.2,0.4,0.3c0.6,0.4,1.1,0.9,1.6,1.3c0.1,0.1,0.1,0.1,0.2,0.2c0.1,0.1,0.1,0.1,0.2,0.2&#10;&#9;&#9;&#9;&#9;&#9;&#9;&#9;&#9;&#9;&#9;c0.1,0.1,0.2,0.2,0.3,0.4C112.8,14.8,113,15,113.3,15.2c0.1,0.3,0.3,0.5,0.4,0.8c0,0.1,0.1,0.1,0.1,0.2&#10;&#9;&#9;&#9;&#9;&#9;&#9;&#9;&#9;&#9;&#9;c0,0.1,0.1,0.1,0.1,0.2c0-0.1-0.1-0.2-0.1-0.3c0,0,0,0,0-0.1C113.6,15.7,113.5,15.5,113.3,15.2z" style="fill: rgb(119, 77, 12);"/>
								</g>
								<g>
									<path class="st10" d="M114.8,19.3C114.8,19.3,114.8,19.2,114.8,19.3L98.3,9c0,0,0,0,0,0s0,0,0,0L114.8,19.3&#10;&#9;&#9;&#9;&#9;&#9;&#9;&#9;&#9;&#9;&#9;C114.8,19.3,114.8,19.3,114.8,19.3z" style="fill: rgb(119, 77, 12);"/>
								</g>
								<g>
									<path class="st10" d="M102,13.5c0.9,0.9,2,1.9,3.1,2.7c1.1,0.9,2.3,1.7,3.5,2.3c1.2,0.6,2.3,1,3.4,1.3c0.1,0,0.2,0,0.3,0&#10;&#9;&#9;&#9;&#9;&#9;&#9;&#9;&#9;&#9;&#9;c-0.1,0-0.2,0-0.3-0.1c-1-0.2-2.2-0.6-3.4-1.3c-1.2-0.6-2.4-1.4-3.5-2.2C104,15.3,103,14.4,102,13.5&#10;&#9;&#9;&#9;&#9;&#9;&#9;&#9;&#9;&#9;&#9;c-0.9-0.9-1.8-1.8-2.5-2.6c-0.4-0.5-0.8-0.9-1.1-1.3c0,0,0,0,0,0c0.3,0.4,0.7,0.8,1.1,1.3C100.2,11.7,101,12.6,102,13.5z" style="fill: rgb(119, 77, 12);"/>
								</g>
								<g>
									<path class="st10" d="M104.1,10.2c0.6,0.2,1.3,0.5,2,0.8c0.7,0.3,1.3,0.6,2,0.9c0.6,0.3,1.3,0.7,1.9,1.1&#10;&#9;&#9;&#9;&#9;&#9;&#9;&#9;&#9;&#9;&#9;c0.6,0.4,1.2,0.8,1.7,1.2c0.5,0.4,1,0.9,1.4,1.3c0.4,0.4,0.7,0.8,1,1.2c0-0.1-0.1-0.2-0.1-0.3c0-0.1-0.1-0.1-0.1-0.2&#10;&#9;&#9;&#9;&#9;&#9;&#9;&#9;&#9;&#9;&#9;c-0.2-0.2-0.4-0.5-0.6-0.7c-0.4-0.5-0.9-0.9-1.5-1.3c-0.5-0.4-1.1-0.8-1.7-1.2c-0.6-0.4-1.2-0.7-1.9-1.1&#10;&#9;&#9;&#9;&#9;&#9;&#9;&#9;&#9;&#9;&#9;c-0.7-0.3-1.3-0.6-2-0.9C105.5,10.7,104.8,10.4,104.1,10.2c-1.3-0.5-2.5-0.8-3.5-1.1c-0.5-0.1-1-0.2-1.4-0.3c0,0,0,0-0.1,0&#10;&#9;&#9;&#9;&#9;&#9;&#9;&#9;&#9;&#9;&#9;c0,0,0,0,0,0c0,0-0.1,0-0.1,0c0.4,0.1,1,0.2,1.5,0.3C101.6,9.5,102.9,9.8,104.1,10.2z" style="fill: rgb(119, 77, 12);"/>
								</g>
								<g>
									<path class="st10" d="M105.7,15.5c1.2,0.9,2.4,1.7,3.6,2.4c1.2,0.7,2.3,1.2,3.4,1.6c0.1,0.1,0.3,0.1,0.4,0.1&#10;&#9;&#9;&#9;&#9;&#9;&#9;&#9;&#9;&#9;&#9;c0.1,0,0.2,0,0.2,0c-0.2-0.1-0.4-0.1-0.6-0.2c-1-0.3-2.2-0.9-3.4-1.6C108.1,17.1,106.9,16.3,105.7,15.5&#10;&#9;&#9;&#9;&#9;&#9;&#9;&#9;&#9;&#9;&#9;c-2.3-1.8-4.6-3.6-6.2-5.1c-0.5-0.4-0.9-0.8-1.2-1.1c0,0,0,0,0,0c0.3,0.3,0.7,0.7,1.2,1.1&#10;&#9;&#9;&#9;&#9;&#9;&#9;&#9;&#9;&#9;&#9;C101.1,11.9,103.3,13.8,105.7,15.5z" style="fill: rgb(119, 77, 12);"/>
								</g>
								<g>
									<path class="st10" d="M101.5,10c0.6,0.3,1.2,0.5,1.8,0.9c0.6,0.3,1.3,0.6,1.9,1c0.3,0.2,0.7,0.3,1,0.5&#10;&#9;&#9;&#9;&#9;&#9;&#9;&#9;&#9;&#9;&#9;c0.3,0.2,0.7,0.4,1,0.5c0.7,0.4,1.3,0.7,1.9,1.1c0.3,0.2,0.6,0.4,0.9,0.6c0.3,0.2,0.6,0.4,0.9,0.6c0.6,0.4,1.1,0.8,1.6,1.2&#10;&#9;&#9;&#9;&#9;&#9;&#9;&#9;&#9;&#9;&#9;c0.3,0.2,0.5,0.4,0.7,0.6c0.2,0.2,0.5,0.4,0.7,0.6c0.2,0.2,0.4,0.3,0.5,0.5c0-0.1,0-0.1-0.1-0.2c-0.1-0.1-0.3-0.2-0.4-0.4&#10;&#9;&#9;&#9;&#9;&#9;&#9;&#9;&#9;&#9;&#9;c-0.2-0.2-0.4-0.4-0.7-0.6c-0.2-0.2-0.5-0.4-0.7-0.6c-0.5-0.4-1.1-0.8-1.6-1.2c-0.3-0.2-0.6-0.4-0.9-0.6&#10;&#9;&#9;&#9;&#9;&#9;&#9;&#9;&#9;&#9;&#9;c-0.3-0.2-0.6-0.4-0.9-0.6c-0.6-0.4-1.3-0.8-1.9-1.1c-0.3-0.2-0.7-0.4-1-0.5c-0.3-0.2-0.7-0.3-1-0.5&#10;&#9;&#9;&#9;&#9;&#9;&#9;&#9;&#9;&#9;&#9;c-0.7-0.3-1.3-0.7-1.9-1C102.7,10.5,102.1,10.2,101.5,10c-0.6-0.3-1.1-0.6-1.6-0.8C99.5,9.1,99.2,9,99,8.9c0,0-0.1,0-0.1,0&#10;&#9;&#9;&#9;&#9;&#9;&#9;&#9;&#9;&#9;&#9;c0.3,0.1,0.6,0.3,0.9,0.4C100.3,9.5,100.9,9.7,101.5,10z" style="fill: rgb(119, 77, 12);"/>
								</g>
							</g>
						</g>
						<g>
							<g>
								<g>
									<path class="st3" d="M104.1,22.1c4.1-3.5,10.6-2.6,10.6-2.6s-0.2,6.5-4.3,10c-4.1,3.5-10.6,2.6-10.6,2.6&#10;&#9;&#9;&#9;&#9;&#9;&#9;&#9;&#9;&#9;&#9;S100,25.5,104.1,22.1z" style="fill: rgb(236, 173, 50);"/>
								</g>
								<g>
									<g>
										<path class="st4" d="M100.1,31.8c0-0.5,0.2-1.8,0.6-3.4c0.5-1.8,1.5-4.4,3.6-6.2c2.1-1.7,4.8-2.3,6.7-2.5&#10;&#9;&#9;&#9;&#9;&#9;&#9;&#9;&#9;&#9;&#9;&#9;c1.6-0.2,2.9-0.1,3.5,0c0,0.5-0.2,1.8-0.6,3.4c-0.5,1.8-1.5,4.4-3.6,6.2c-2.1,1.7-4.8,2.3-6.7,2.5&#10;&#9;&#9;&#9;&#9;&#9;&#9;&#9;&#9;&#9;&#9;&#9;C102,32,100.6,31.9,100.1,31.8 M99.8,32.1c0,0,6.5,0.9,10.6-2.6c4.1-3.5,4.3-10,4.3-10s-6.5-0.9-10.6,2.6&#10;&#9;&#9;&#9;&#9;&#9;&#9;&#9;&#9;&#9;&#9;&#9;C100,25.5,99.8,32.1,99.8,32.1L99.8,32.1z" style="fill: rgb(173, 50, 0);"/>
									</g>
									<g>
										<g>
											<path class="st4" d="M102.7,31.8c0.5-0.2,1-0.3,1.6-0.5c0.6-0.2,1.2-0.5,1.8-0.7c0.2-0.1,0.3-0.1,0.5-0.2&#10;&#9;&#9;&#9;&#9;&#9;&#9;&#9;&#9;&#9;&#9;&#9;&#9;c0.1,0,0.2-0.1,0.2-0.1c0.1,0,0.2-0.1,0.2-0.1c0.2-0.1,0.3-0.2,0.5-0.2c0.1-0.1,0.3-0.2,0.5-0.3c0.3-0.2,0.6-0.4,0.9-0.6&#10;&#9;&#9;&#9;&#9;&#9;&#9;&#9;&#9;&#9;&#9;&#9;&#9;c0.1-0.1,0.3-0.2,0.4-0.3c0.1-0.1,0.3-0.2,0.4-0.3l0.4-0.3c0.1-0.1,0.1-0.1,0.2-0.2l0.2-0.2c0.1-0.1,0.3-0.2,0.4-0.3&#10;&#9;&#9;&#9;&#9;&#9;&#9;&#9;&#9;&#9;&#9;&#9;&#9;c0.1-0.1,0.3-0.2,0.4-0.4c0.5-0.5,1-1,1.4-1.5c0.1-0.1,0.2-0.3,0.3-0.4c0.1-0.1,0.2-0.3,0.3-0.4c0.2-0.3,0.3-0.5,0.5-0.8&#10;&#9;&#9;&#9;&#9;&#9;&#9;&#9;&#9;&#9;&#9;&#9;&#9;c0.1-0.2,0.2-0.5,0.4-0.7c0-0.2,0.1-0.4,0.1-0.5c0,0,0,0,0,0c0,0.1-0.1,0.3-0.2,0.4c-0.1,0.3-0.2,0.5-0.4,0.8&#10;&#9;&#9;&#9;&#9;&#9;&#9;&#9;&#9;&#9;&#9;&#9;&#9;c-0.2,0.3-0.3,0.5-0.5,0.8c-0.1,0.1-0.2,0.3-0.3,0.4c-0.1,0.1-0.2,0.3-0.3,0.4c-0.4,0.5-0.8,1-1.4,1.5&#10;&#9;&#9;&#9;&#9;&#9;&#9;&#9;&#9;&#9;&#9;&#9;&#9;c-0.1,0.1-0.2,0.2-0.4,0.4c-0.1,0.1-0.3,0.2-0.4,0.3l-0.2,0.2c-0.1,0.1-0.1,0.1-0.2,0.2l-0.4,0.3&#10;&#9;&#9;&#9;&#9;&#9;&#9;&#9;&#9;&#9;&#9;&#9;&#9;c-0.1,0.1-0.3,0.2-0.4,0.3c-0.1,0.1-0.3,0.2-0.4,0.3c-0.3,0.2-0.6,0.4-0.9,0.6c-0.2,0.1-0.3,0.2-0.4,0.3&#10;&#9;&#9;&#9;&#9;&#9;&#9;&#9;&#9;&#9;&#9;&#9;&#9;c-0.2,0.1-0.3,0.2-0.5,0.2c-0.1,0-0.1,0.1-0.2,0.1c-0.1,0-0.2,0.1-0.2,0.1c-0.2,0.1-0.3,0.1-0.5,0.2&#10;&#9;&#9;&#9;&#9;&#9;&#9;&#9;&#9;&#9;&#9;&#9;&#9;c-0.6,0.3-1.2,0.5-1.8,0.7C103.7,31.4,103.2,31.6,102.7,31.8c-0.5,0.1-1,0.3-1.4,0.4c-0.1,0-0.1,0-0.2,0c0,0,0,0,0,0&#10;&#9;&#9;&#9;&#9;&#9;&#9;&#9;&#9;&#9;&#9;&#9;&#9;c0,0,0.1,0,0.1,0C101.7,32,102.2,31.9,102.7,31.8z" style="fill: rgb(173, 50, 0);"/>
										</g>
										<g>
											<path class="st4" d="M110.3,19.7c-0.3,0.1-0.6,0.2-0.9,0.4c-0.1,0.1-0.3,0.1-0.4,0.2c-0.1,0-0.2,0.1-0.2,0.1&#10;&#9;&#9;&#9;&#9;&#9;&#9;&#9;&#9;&#9;&#9;&#9;&#9;c-0.1,0-0.2,0.1-0.2,0.1c-0.6,0.3-1.2,0.7-1.8,1.1c-0.1,0.1-0.3,0.2-0.4,0.3c-0.1,0.1-0.3,0.2-0.4,0.3&#10;&#9;&#9;&#9;&#9;&#9;&#9;&#9;&#9;&#9;&#9;&#9;&#9;c-0.3,0.2-0.5,0.5-0.8,0.7c-0.1,0.1-0.3,0.3-0.4,0.4c-0.1,0.1-0.3,0.3-0.4,0.4c-0.1,0.1-0.2,0.3-0.4,0.4&#10;&#9;&#9;&#9;&#9;&#9;&#9;&#9;&#9;&#9;&#9;&#9;&#9;c-0.1,0.1-0.1,0.1-0.2,0.2l-0.2,0.2c-0.1,0.1-0.2,0.3-0.3,0.4c-0.1,0.1-0.2,0.3-0.3,0.4c-0.2,0.3-0.4,0.6-0.6,0.8&#10;&#9;&#9;&#9;&#9;&#9;&#9;&#9;&#9;&#9;&#9;&#9;&#9;c-0.4,0.6-0.7,1.1-1,1.7c-0.3,0.5-0.6,1.1-0.8,1.5c-0.2,0.5-0.4,0.9-0.6,1.3c0,0.1-0.1,0.2-0.1,0.4c0,0,0,0,0-0.1&#10;&#9;&#9;&#9;&#9;&#9;&#9;&#9;&#9;&#9;&#9;&#9;&#9;c0-0.1,0.1-0.2,0.1-0.3c0.2-0.4,0.4-0.8,0.6-1.3c0.2-0.5,0.5-1,0.8-1.5c0.3-0.5,0.6-1.1,1-1.7c0.2-0.3,0.4-0.6,0.6-0.8&#10;&#9;&#9;&#9;&#9;&#9;&#9;&#9;&#9;&#9;&#9;&#9;&#9;c0.1-0.1,0.2-0.3,0.3-0.4c0.1-0.1,0.2-0.3,0.3-0.4l0.2-0.2c0.1-0.1,0.1-0.1,0.2-0.2c0.1-0.1,0.2-0.3,0.4-0.4&#10;&#9;&#9;&#9;&#9;&#9;&#9;&#9;&#9;&#9;&#9;&#9;&#9;c0.1-0.1,0.2-0.3,0.4-0.4c0.1-0.1,0.2-0.3,0.4-0.4c0.3-0.2,0.5-0.5,0.8-0.7c0.1-0.1,0.3-0.2,0.4-0.3&#10;&#9;&#9;&#9;&#9;&#9;&#9;&#9;&#9;&#9;&#9;&#9;&#9;c0.1-0.1,0.3-0.2,0.4-0.3c0.6-0.4,1.2-0.8,1.8-1.1c0.1,0,0.1-0.1,0.2-0.1c0.1,0,0.2-0.1,0.2-0.1c0.2-0.1,0.3-0.1,0.4-0.2&#10;&#9;&#9;&#9;&#9;&#9;&#9;&#9;&#9;&#9;&#9;&#9;&#9;C109.8,20,110.1,19.9,110.3,19.7c0.3,0,0.6-0.1,0.9-0.2c0.1,0,0.1,0,0.2-0.1c0.1,0,0.1-0.1,0.2-0.1c-0.1,0-0.2,0-0.4,0&#10;&#9;&#9;&#9;&#9;&#9;&#9;&#9;&#9;&#9;&#9;&#9;&#9;c0,0,0,0-0.1,0C110.9,19.5,110.6,19.6,110.3,19.7z" style="fill: rgb(173, 50, 0);"/>
										</g>
										<g>
											<path class="st4" d="M114.7,19.5C114.7,19.5,114.6,19.5,114.7,19.5L99.8,32.1c0,0,0,0,0,0s0,0,0,0L114.7,19.5&#10;&#9;&#9;&#9;&#9;&#9;&#9;&#9;&#9;&#9;&#9;&#9;&#9;C114.6,19.5,114.7,19.5,114.7,19.5z" style="fill: rgb(173, 50, 0);"/>
										</g>
										<g>
											<path class="st4" d="M105.2,29.9c1.2-0.6,2.4-1.3,3.6-2.1c1.2-0.8,2.3-1.7,3.2-2.6c1-0.9,1.7-1.9,2.3-2.8&#10;&#9;&#9;&#9;&#9;&#9;&#9;&#9;&#9;&#9;&#9;&#9;&#9;c0-0.1,0-0.2,0.1-0.3c0,0.1-0.1,0.2-0.1,0.3c-0.5,0.9-1.3,1.9-2.2,2.8c-0.9,0.9-2,1.8-3.2,2.6&#10;&#9;&#9;&#9;&#9;&#9;&#9;&#9;&#9;&#9;&#9;&#9;&#9;C107.6,28.5,106.3,29.2,105.2,29.9c-1.2,0.6-2.3,1.1-3.3,1.5c-0.6,0.3-1.1,0.5-1.6,0.7c0,0,0,0,0,0&#10;&#9;&#9;&#9;&#9;&#9;&#9;&#9;&#9;&#9;&#9;&#9;&#9;c0.5-0.2,1-0.4,1.6-0.7C102.9,31.1,104,30.5,105.2,29.9z" style="fill: rgb(173, 50, 0);"/>
										</g>
										<g>
											<path class="st4" d="M102.8,26.9c0.4-0.5,0.9-1.1,1.3-1.6c0.5-0.5,1-1.1,1.5-1.6c0.5-0.5,1.1-1,1.6-1.5&#10;&#9;&#9;&#9;&#9;&#9;&#9;&#9;&#9;&#9;&#9;&#9;&#9;c0.6-0.5,1.1-0.9,1.7-1.2c0.6-0.4,1.1-0.7,1.7-1c0.5-0.2,1-0.4,1.4-0.6c-0.1,0-0.2,0-0.3,0c-0.1,0-0.1,0.1-0.2,0.1&#10;&#9;&#9;&#9;&#9;&#9;&#9;&#9;&#9;&#9;&#9;&#9;&#9;c-0.3,0.1-0.6,0.2-0.9,0.4c-0.6,0.3-1.1,0.6-1.7,1c-0.6,0.4-1.1,0.8-1.7,1.3c-0.6,0.5-1.1,1-1.6,1.5&#10;&#9;&#9;&#9;&#9;&#9;&#9;&#9;&#9;&#9;&#9;&#9;&#9;c-0.5,0.5-1,1.1-1.5,1.6C103.6,25.7,103.2,26.3,102.8,26.9c-0.9,1.1-1.6,2.1-2.1,3c-0.3,0.4-0.5,0.8-0.7,1.2&#10;&#9;&#9;&#9;&#9;&#9;&#9;&#9;&#9;&#9;&#9;&#9;&#9;c0,0,0,0,0,0.1c0,0,0,0,0,0c0,0,0,0.1,0,0.1c0.2-0.4,0.5-0.8,0.8-1.3C101.3,29,102,27.9,102.8,26.9z" style="fill: rgb(173, 50, 0);"/>
										</g>
										<g>
											<path class="st4" d="M108.3,27c1.2-0.9,2.3-1.8,3.4-2.7c1-0.9,1.9-1.9,2.6-2.7c0.1-0.1,0.2-0.2,0.3-0.4&#10;&#9;&#9;&#9;&#9;&#9;&#9;&#9;&#9;&#9;&#9;&#9;&#9;c0-0.1,0-0.2,0-0.2c-0.1,0.2-0.2,0.4-0.4,0.5c-0.6,0.9-1.5,1.8-2.5,2.7C110.6,25.2,109.4,26.1,108.3,27&#10;&#9;&#9;&#9;&#9;&#9;&#9;&#9;&#9;&#9;&#9;&#9;&#9;c-2.4,1.7-4.9,3.2-6.8,4.3c-0.5,0.3-1,0.6-1.4,0.8c0,0,0,0,0,0c0.4-0.2,0.9-0.5,1.4-0.8C103.4,30.2,105.9,28.7,108.3,27z&#10;&#9;&#9;&#9;&#9;&#9;&#9;&#9;&#9;&#9;&#9;&#9;&#9;" style="fill: rgb(173, 50, 0);"/>
										</g>
										<g>
											<path class="st4" d="M101.7,29.3c0.4-0.5,0.9-1,1.4-1.5c0.5-0.5,1-1,1.5-1.5c0.3-0.3,0.5-0.5,0.8-0.8&#10;&#9;&#9;&#9;&#9;&#9;&#9;&#9;&#9;&#9;&#9;&#9;&#9;c0.3-0.3,0.5-0.5,0.8-0.8c0.5-0.5,1.1-1,1.7-1.5c0.3-0.2,0.6-0.5,0.8-0.7c0.3-0.2,0.6-0.5,0.8-0.7&#10;&#9;&#9;&#9;&#9;&#9;&#9;&#9;&#9;&#9;&#9;&#9;&#9;c0.6-0.4,1.1-0.8,1.6-1.2c0.3-0.2,0.5-0.4,0.8-0.5c0.3-0.2,0.5-0.3,0.7-0.5c0.2-0.1,0.4-0.2,0.6-0.3c-0.1,0-0.1,0-0.2,0&#10;&#9;&#9;&#9;&#9;&#9;&#9;&#9;&#9;&#9;&#9;&#9;&#9;c-0.2,0.1-0.3,0.2-0.5,0.3c-0.2,0.1-0.5,0.3-0.7,0.5c-0.3,0.2-0.5,0.3-0.8,0.5c-0.5,0.4-1.1,0.8-1.6,1.2&#10;&#9;&#9;&#9;&#9;&#9;&#9;&#9;&#9;&#9;&#9;&#9;&#9;c-0.3,0.2-0.6,0.4-0.8,0.7c-0.3,0.2-0.6,0.5-0.8,0.7c-0.6,0.5-1.1,1-1.7,1.5c-0.3,0.3-0.5,0.5-0.8,0.8&#10;&#9;&#9;&#9;&#9;&#9;&#9;&#9;&#9;&#9;&#9;&#9;&#9;c-0.3,0.3-0.5,0.5-0.8,0.8c-0.5,0.5-1,1-1.5,1.6C102.6,28.3,102.1,28.8,101.7,29.3c-0.5,0.4-0.9,0.9-1.2,1.3&#10;&#9;&#9;&#9;&#9;&#9;&#9;&#9;&#9;&#9;&#9;&#9;&#9;c-0.2,0.2-0.4,0.5-0.6,0.7c0,0,0,0.1,0,0.1c0.2-0.2,0.4-0.5,0.7-0.8C100.9,30.2,101.3,29.8,101.7,29.3z" style="fill: rgb(173, 50, 0);"/>
										</g>
									</g>
								</g>
							</g>
							<g>
								<path class="st11" d="M104.1,22.1c4.1-3.5,10.6-2.6,10.6-2.6s-0.2,6.5-4.3,10c-4.1,3.5-10.6,2.6-10.6,2.6&#10;&#9;&#9;&#9;&#9;&#9;&#9;&#9;&#9;&#9;S100,25.5,104.1,22.1z" style="fill: rgb(202, 146, 49);"/>
							</g>
							<g>
								<g>
									<path class="st2" d="M100.1,31.8c0-0.5,0.2-1.8,0.6-3.4c0.5-1.8,1.5-4.4,3.6-6.2c2.1-1.7,4.8-2.3,6.7-2.5&#10;&#9;&#9;&#9;&#9;&#9;&#9;&#9;&#9;&#9;&#9;c1.6-0.2,2.9-0.1,3.5,0c0,0.5-0.2,1.8-0.6,3.4c-0.5,1.8-1.5,4.4-3.6,6.2c-2.1,1.7-4.8,2.3-6.7,2.5&#10;&#9;&#9;&#9;&#9;&#9;&#9;&#9;&#9;&#9;&#9;C102,32,100.6,31.9,100.1,31.8 M99.8,32.1c0,0,6.5,0.9,10.6-2.6c4.1-3.5,4.3-10,4.3-10s-6.5-0.9-10.6,2.6&#10;&#9;&#9;&#9;&#9;&#9;&#9;&#9;&#9;&#9;&#9;C100,25.5,99.8,32.1,99.8,32.1L99.8,32.1z" style="fill: rgb(147, 97, 22);"/>
								</g>
								<g>
									<g>
										<path class="st2" d="M102.7,31.8c0.5-0.2,1-0.3,1.6-0.5c0.6-0.2,1.2-0.5,1.8-0.7c0.2-0.1,0.3-0.1,0.5-0.2&#10;&#9;&#9;&#9;&#9;&#9;&#9;&#9;&#9;&#9;&#9;&#9;c0.1,0,0.2-0.1,0.2-0.1c0.1,0,0.2-0.1,0.2-0.1c0.2-0.1,0.3-0.2,0.5-0.2c0.1-0.1,0.3-0.2,0.5-0.3c0.3-0.2,0.6-0.4,0.9-0.6&#10;&#9;&#9;&#9;&#9;&#9;&#9;&#9;&#9;&#9;&#9;&#9;c0.1-0.1,0.3-0.2,0.4-0.3c0.1-0.1,0.3-0.2,0.4-0.3l0.4-0.3c0.1-0.1,0.1-0.1,0.2-0.2l0.2-0.2c0.1-0.1,0.3-0.2,0.4-0.3&#10;&#9;&#9;&#9;&#9;&#9;&#9;&#9;&#9;&#9;&#9;&#9;c0.1-0.1,0.3-0.2,0.4-0.4c0.5-0.5,1-1,1.4-1.5c0.1-0.1,0.2-0.3,0.3-0.4c0.1-0.1,0.2-0.3,0.3-0.4c0.2-0.3,0.3-0.5,0.5-0.8&#10;&#9;&#9;&#9;&#9;&#9;&#9;&#9;&#9;&#9;&#9;&#9;c0.1-0.2,0.2-0.5,0.4-0.7c0-0.2,0.1-0.4,0.1-0.5c0,0,0,0,0,0c0,0.1-0.1,0.3-0.2,0.4c-0.1,0.3-0.2,0.5-0.4,0.8&#10;&#9;&#9;&#9;&#9;&#9;&#9;&#9;&#9;&#9;&#9;&#9;c-0.2,0.3-0.3,0.5-0.5,0.8c-0.1,0.1-0.2,0.3-0.3,0.4c-0.1,0.1-0.2,0.3-0.3,0.4c-0.4,0.5-0.8,1-1.4,1.5&#10;&#9;&#9;&#9;&#9;&#9;&#9;&#9;&#9;&#9;&#9;&#9;c-0.1,0.1-0.2,0.2-0.4,0.4c-0.1,0.1-0.3,0.2-0.4,0.3l-0.2,0.2c-0.1,0.1-0.1,0.1-0.2,0.2l-0.4,0.3&#10;&#9;&#9;&#9;&#9;&#9;&#9;&#9;&#9;&#9;&#9;&#9;c-0.1,0.1-0.3,0.2-0.4,0.3c-0.1,0.1-0.3,0.2-0.4,0.3c-0.3,0.2-0.6,0.4-0.9,0.6c-0.2,0.1-0.3,0.2-0.4,0.3&#10;&#9;&#9;&#9;&#9;&#9;&#9;&#9;&#9;&#9;&#9;&#9;c-0.2,0.1-0.3,0.2-0.5,0.2c-0.1,0-0.1,0.1-0.2,0.1c-0.1,0-0.2,0.1-0.2,0.1c-0.2,0.1-0.3,0.1-0.5,0.2&#10;&#9;&#9;&#9;&#9;&#9;&#9;&#9;&#9;&#9;&#9;&#9;c-0.6,0.3-1.2,0.5-1.8,0.7C103.7,31.4,103.2,31.6,102.7,31.8c-0.5,0.1-1,0.3-1.4,0.4c-0.1,0-0.1,0-0.2,0c0,0,0,0,0,0&#10;&#9;&#9;&#9;&#9;&#9;&#9;&#9;&#9;&#9;&#9;&#9;c0,0,0.1,0,0.1,0C101.7,32,102.2,31.9,102.7,31.8z" style="fill: rgb(147, 97, 22);"/>
									</g>
									<g>
										<path class="st2" d="M110.3,19.7c-0.3,0.1-0.6,0.2-0.9,0.4c-0.1,0.1-0.3,0.1-0.4,0.2c-0.1,0-0.2,0.1-0.2,0.1&#10;&#9;&#9;&#9;&#9;&#9;&#9;&#9;&#9;&#9;&#9;&#9;c-0.1,0-0.2,0.1-0.2,0.1c-0.6,0.3-1.2,0.7-1.8,1.1c-0.1,0.1-0.3,0.2-0.4,0.3c-0.1,0.1-0.3,0.2-0.4,0.3&#10;&#9;&#9;&#9;&#9;&#9;&#9;&#9;&#9;&#9;&#9;&#9;c-0.3,0.2-0.5,0.5-0.8,0.7c-0.1,0.1-0.3,0.3-0.4,0.4c-0.1,0.1-0.3,0.3-0.4,0.4c-0.1,0.1-0.2,0.3-0.4,0.4&#10;&#9;&#9;&#9;&#9;&#9;&#9;&#9;&#9;&#9;&#9;&#9;c-0.1,0.1-0.1,0.1-0.2,0.2l-0.2,0.2c-0.1,0.1-0.2,0.3-0.3,0.4c-0.1,0.1-0.2,0.3-0.3,0.4c-0.2,0.3-0.4,0.6-0.6,0.8&#10;&#9;&#9;&#9;&#9;&#9;&#9;&#9;&#9;&#9;&#9;&#9;c-0.4,0.6-0.7,1.1-1,1.7c-0.3,0.5-0.6,1.1-0.8,1.5c-0.2,0.5-0.4,0.9-0.6,1.3c0,0.1-0.1,0.2-0.1,0.4c0,0,0,0,0-0.1&#10;&#9;&#9;&#9;&#9;&#9;&#9;&#9;&#9;&#9;&#9;&#9;c0-0.1,0.1-0.2,0.1-0.3c0.2-0.4,0.4-0.8,0.6-1.3c0.2-0.5,0.5-1,0.8-1.5c0.3-0.5,0.6-1.1,1-1.7c0.2-0.3,0.4-0.6,0.6-0.8&#10;&#9;&#9;&#9;&#9;&#9;&#9;&#9;&#9;&#9;&#9;&#9;c0.1-0.1,0.2-0.3,0.3-0.4c0.1-0.1,0.2-0.3,0.3-0.4l0.2-0.2c0.1-0.1,0.1-0.1,0.2-0.2c0.1-0.1,0.2-0.3,0.4-0.4&#10;&#9;&#9;&#9;&#9;&#9;&#9;&#9;&#9;&#9;&#9;&#9;c0.1-0.1,0.2-0.3,0.4-0.4c0.1-0.1,0.2-0.3,0.4-0.4c0.3-0.2,0.5-0.5,0.8-0.7c0.1-0.1,0.3-0.2,0.4-0.3&#10;&#9;&#9;&#9;&#9;&#9;&#9;&#9;&#9;&#9;&#9;&#9;c0.1-0.1,0.3-0.2,0.4-0.3c0.6-0.4,1.2-0.8,1.8-1.1c0.1,0,0.1-0.1,0.2-0.1c0.1,0,0.2-0.1,0.2-0.1c0.2-0.1,0.3-0.1,0.4-0.2&#10;&#9;&#9;&#9;&#9;&#9;&#9;&#9;&#9;&#9;&#9;&#9;C109.8,20,110.1,19.9,110.3,19.7c0.3,0,0.6-0.1,0.9-0.2c0.1,0,0.1,0,0.2-0.1c0.1,0,0.1-0.1,0.2-0.1c-0.1,0-0.2,0-0.4,0&#10;&#9;&#9;&#9;&#9;&#9;&#9;&#9;&#9;&#9;&#9;&#9;c0,0,0,0-0.1,0C110.9,19.5,110.6,19.6,110.3,19.7z" style="fill: rgb(147, 97, 22);"/>
									</g>
									<g>
										<path class="st2" d="M114.7,19.5C114.7,19.5,114.6,19.5,114.7,19.5L99.8,32.1c0,0,0,0,0,0s0,0,0,0L114.7,19.5&#10;&#9;&#9;&#9;&#9;&#9;&#9;&#9;&#9;&#9;&#9;&#9;C114.6,19.5,114.7,19.5,114.7,19.5z" style="fill: rgb(147, 97, 22);"/>
									</g>
									<g>
										<path class="st2" d="M105.2,29.9c1.2-0.6,2.4-1.3,3.6-2.1c1.2-0.8,2.3-1.7,3.2-2.6c1-0.9,1.7-1.9,2.3-2.8&#10;&#9;&#9;&#9;&#9;&#9;&#9;&#9;&#9;&#9;&#9;&#9;c0-0.1,0-0.2,0.1-0.3c0,0.1-0.1,0.2-0.1,0.3c-0.5,0.9-1.3,1.9-2.2,2.8c-0.9,0.9-2,1.8-3.2,2.6&#10;&#9;&#9;&#9;&#9;&#9;&#9;&#9;&#9;&#9;&#9;&#9;C107.6,28.5,106.3,29.2,105.2,29.9c-1.2,0.6-2.3,1.1-3.3,1.5c-0.6,0.3-1.1,0.5-1.6,0.7c0,0,0,0,0,0c0.5-0.2,1-0.4,1.6-0.7&#10;&#9;&#9;&#9;&#9;&#9;&#9;&#9;&#9;&#9;&#9;&#9;C102.9,31.1,104,30.5,105.2,29.9z" style="fill: rgb(147, 97, 22);"/>
									</g>
									<g>
										<path class="st2" d="M102.8,26.9c0.4-0.5,0.9-1.1,1.3-1.6c0.5-0.5,1-1.1,1.5-1.6c0.5-0.5,1.1-1,1.6-1.5&#10;&#9;&#9;&#9;&#9;&#9;&#9;&#9;&#9;&#9;&#9;&#9;c0.6-0.5,1.1-0.9,1.7-1.2c0.6-0.4,1.1-0.7,1.7-1c0.5-0.2,1-0.4,1.4-0.6c-0.1,0-0.2,0-0.3,0c-0.1,0-0.1,0.1-0.2,0.1&#10;&#9;&#9;&#9;&#9;&#9;&#9;&#9;&#9;&#9;&#9;&#9;c-0.3,0.1-0.6,0.2-0.9,0.4c-0.6,0.3-1.1,0.6-1.7,1c-0.6,0.4-1.1,0.8-1.7,1.3c-0.6,0.5-1.1,1-1.6,1.5&#10;&#9;&#9;&#9;&#9;&#9;&#9;&#9;&#9;&#9;&#9;&#9;c-0.5,0.5-1,1.1-1.5,1.6C103.6,25.7,103.2,26.3,102.8,26.9c-0.9,1.1-1.6,2.1-2.1,3c-0.3,0.4-0.5,0.8-0.7,1.2&#10;&#9;&#9;&#9;&#9;&#9;&#9;&#9;&#9;&#9;&#9;&#9;c0,0,0,0,0,0.1c0,0,0,0,0,0c0,0,0,0.1,0,0.1c0.2-0.4,0.5-0.8,0.8-1.3C101.3,29,102,27.9,102.8,26.9z" style="fill: rgb(147, 97, 22);"/>
									</g>
									<g>
										<path class="st2" d="M108.3,27c1.2-0.9,2.3-1.8,3.4-2.7c1-0.9,1.9-1.9,2.6-2.7c0.1-0.1,0.2-0.2,0.3-0.4c0-0.1,0-0.2,0-0.2&#10;&#9;&#9;&#9;&#9;&#9;&#9;&#9;&#9;&#9;&#9;&#9;c-0.1,0.2-0.2,0.4-0.4,0.5c-0.6,0.9-1.5,1.8-2.5,2.7C110.6,25.2,109.4,26.1,108.3,27c-2.4,1.7-4.9,3.2-6.8,4.3&#10;&#9;&#9;&#9;&#9;&#9;&#9;&#9;&#9;&#9;&#9;&#9;c-0.5,0.3-1,0.6-1.4,0.8c0,0,0,0,0,0c0.4-0.2,0.9-0.5,1.4-0.8C103.4,30.2,105.9,28.7,108.3,27z" style="fill: rgb(147, 97, 22);"/>
									</g>
									<g>
										<path class="st2" d="M101.7,29.3c0.4-0.5,0.9-1,1.4-1.5c0.5-0.5,1-1,1.5-1.5c0.3-0.3,0.5-0.5,0.8-0.8&#10;&#9;&#9;&#9;&#9;&#9;&#9;&#9;&#9;&#9;&#9;&#9;c0.3-0.3,0.5-0.5,0.8-0.8c0.5-0.5,1.1-1,1.7-1.5c0.3-0.2,0.6-0.5,0.8-0.7c0.3-0.2,0.6-0.5,0.8-0.7&#10;&#9;&#9;&#9;&#9;&#9;&#9;&#9;&#9;&#9;&#9;&#9;c0.6-0.4,1.1-0.8,1.6-1.2c0.3-0.2,0.5-0.4,0.8-0.5c0.3-0.2,0.5-0.3,0.7-0.5c0.2-0.1,0.4-0.2,0.6-0.3c-0.1,0-0.1,0-0.2,0&#10;&#9;&#9;&#9;&#9;&#9;&#9;&#9;&#9;&#9;&#9;&#9;c-0.2,0.1-0.3,0.2-0.5,0.3c-0.2,0.1-0.5,0.3-0.7,0.5c-0.3,0.2-0.5,0.3-0.8,0.5c-0.5,0.4-1.1,0.8-1.6,1.2&#10;&#9;&#9;&#9;&#9;&#9;&#9;&#9;&#9;&#9;&#9;&#9;c-0.3,0.2-0.6,0.4-0.8,0.7c-0.3,0.2-0.6,0.5-0.8,0.7c-0.6,0.5-1.1,1-1.7,1.5c-0.3,0.3-0.5,0.5-0.8,0.8&#10;&#9;&#9;&#9;&#9;&#9;&#9;&#9;&#9;&#9;&#9;&#9;c-0.3,0.3-0.5,0.5-0.8,0.8c-0.5,0.5-1,1-1.5,1.6C102.6,28.3,102.1,28.8,101.7,29.3c-0.5,0.4-0.9,0.9-1.2,1.3&#10;&#9;&#9;&#9;&#9;&#9;&#9;&#9;&#9;&#9;&#9;&#9;c-0.2,0.2-0.4,0.5-0.6,0.7c0,0,0,0.1,0,0.1c0.2-0.2,0.4-0.5,0.7-0.8C100.9,30.2,101.3,29.8,101.7,29.3z" style="fill: rgb(147, 97, 22);"/>
									</g>
								</g>
							</g>
						</g>
						<g>
							<g>
								<path class="st3" d="M114,30.6c-2-5,0.8-10.9,0.8-10.9s6.2,2.2,8.2,7.1c2,5-0.8,10.9-0.8,10.9S116,35.5,114,30.6z" style="fill: rgb(236, 173, 50);"/>
							</g>
							<g>
								<g>
									<path class="st4" d="M122.1,37.4c-0.5-0.2-1.7-0.7-3.1-1.6c-1.6-1-3.7-2.8-4.8-5.3c-1-2.5-0.8-5.2-0.3-7.1&#10;&#9;&#9;&#9;&#9;&#9;&#9;&#9;&#9;&#9;&#9;c0.3-1.6,0.8-2.8,1.1-3.3c0.5,0.2,1.7,0.7,3.1,1.6c1.6,1,3.7,2.8,4.8,5.3c1,2.5,0.8,5.2,0.3,7.1&#10;&#9;&#9;&#9;&#9;&#9;&#9;&#9;&#9;&#9;&#9;C122.8,35.6,122.3,36.9,122.1,37.4 M122.2,37.7c0,0,2.9-5.9,0.8-10.9c-2-5-8.2-7.1-8.2-7.1s-2.9,5.9-0.8,10.9&#10;&#9;&#9;&#9;&#9;&#9;&#9;&#9;&#9;&#9;&#9;C116,35.5,122.2,37.7,122.2,37.7L122.2,37.7z" style="fill: rgb(173, 50, 0);"/>
								</g>
								<g>
									<g>
										<path class="st4" d="M122.8,34.9c0-0.5,0-1.1,0-1.7c0-0.6-0.1-1.2-0.1-1.9c0-0.2,0-0.3-0.1-0.5c0-0.1,0-0.2,0-0.3&#10;&#9;&#9;&#9;&#9;&#9;&#9;&#9;&#9;&#9;&#9;&#9;c0-0.1,0-0.2,0-0.3c0-0.2-0.1-0.3-0.1-0.5c0-0.2-0.1-0.3-0.1-0.5c-0.1-0.3-0.2-0.7-0.2-1c0-0.2-0.1-0.3-0.2-0.5&#10;&#9;&#9;&#9;&#9;&#9;&#9;&#9;&#9;&#9;&#9;&#9;c-0.1-0.2-0.1-0.3-0.2-0.5l-0.2-0.5c0-0.1-0.1-0.2-0.1-0.2l-0.1-0.2c-0.1-0.2-0.1-0.3-0.2-0.5c-0.1-0.2-0.2-0.3-0.2-0.5&#10;&#9;&#9;&#9;&#9;&#9;&#9;&#9;&#9;&#9;&#9;&#9;c-0.3-0.6-0.7-1.2-1-1.8c-0.1-0.1-0.2-0.3-0.3-0.4c-0.1-0.1-0.2-0.3-0.3-0.4c-0.2-0.2-0.4-0.5-0.6-0.7&#10;&#9;&#9;&#9;&#9;&#9;&#9;&#9;&#9;&#9;&#9;&#9;c-0.2-0.2-0.4-0.4-0.6-0.5c-0.2-0.1-0.3-0.2-0.5-0.3c0,0,0,0,0,0c0.1,0.1,0.2,0.2,0.3,0.3c0.2,0.2,0.4,0.4,0.6,0.6&#10;&#9;&#9;&#9;&#9;&#9;&#9;&#9;&#9;&#9;&#9;&#9;c0.2,0.2,0.4,0.5,0.6,0.7c0.1,0.1,0.2,0.3,0.3,0.4c0.1,0.1,0.2,0.3,0.3,0.4c0.4,0.5,0.7,1.1,1,1.8&#10;&#9;&#9;&#9;&#9;&#9;&#9;&#9;&#9;&#9;&#9;&#9;c0.1,0.2,0.2,0.3,0.2,0.5c0.1,0.2,0.1,0.3,0.2,0.5l0.1,0.2c0,0.1,0.1,0.2,0.1,0.2l0.2,0.5c0.1,0.2,0.1,0.3,0.2,0.5&#10;&#9;&#9;&#9;&#9;&#9;&#9;&#9;&#9;&#9;&#9;&#9;c0,0.2,0.1,0.3,0.2,0.5c0.1,0.3,0.2,0.7,0.3,1c0,0.2,0.1,0.3,0.1,0.5c0,0.2,0.1,0.3,0.1,0.5c0,0.1,0,0.2,0,0.2&#10;&#9;&#9;&#9;&#9;&#9;&#9;&#9;&#9;&#9;&#9;&#9;c0,0.1,0,0.2,0,0.3c0,0.2,0,0.3,0.1,0.5c0.1,0.7,0.1,1.3,0.2,1.9C122.8,33.8,122.8,34.4,122.8,34.9c0,0.5-0.1,1-0.1,1.4&#10;&#9;&#9;&#9;&#9;&#9;&#9;&#9;&#9;&#9;&#9;&#9;c0,0.1,0,0.1,0,0.2c0,0,0,0,0,0c0,0,0-0.1,0-0.1C122.8,35.9,122.8,35.4,122.8,34.9z" style="fill: rgb(173, 50, 0);"/>
									</g>
									<g>
										<path class="st4" d="M113.7,23.9c0,0.3,0,0.6,0.1,1c0,0.2,0,0.3,0.1,0.5c0,0.1,0,0.2,0,0.2c0,0.1,0,0.2,0,0.2&#10;&#9;&#9;&#9;&#9;&#9;&#9;&#9;&#9;&#9;&#9;&#9;c0.1,0.7,0.3,1.4,0.5,2c0.1,0.2,0.1,0.3,0.2,0.5c0.1,0.2,0.1,0.3,0.2,0.5c0.1,0.3,0.3,0.7,0.4,1c0.1,0.2,0.2,0.3,0.2,0.5&#10;&#9;&#9;&#9;&#9;&#9;&#9;&#9;&#9;&#9;&#9;&#9;c0.1,0.2,0.2,0.3,0.3,0.5c0.1,0.2,0.2,0.3,0.3,0.5c0,0.1,0.1,0.2,0.1,0.2l0.1,0.2c0.1,0.1,0.2,0.3,0.3,0.4&#10;&#9;&#9;&#9;&#9;&#9;&#9;&#9;&#9;&#9;&#9;&#9;c0.1,0.1,0.2,0.3,0.3,0.4c0.2,0.3,0.4,0.6,0.6,0.8c0.4,0.5,0.8,1,1.3,1.5c0.4,0.5,0.8,0.9,1.2,1.2c0.4,0.4,0.8,0.7,1.1,1&#10;&#9;&#9;&#9;&#9;&#9;&#9;&#9;&#9;&#9;&#9;&#9;c0.1,0.1,0.2,0.2,0.3,0.2c0,0,0,0,0,0c-0.1-0.1-0.2-0.1-0.2-0.2c-0.3-0.3-0.7-0.6-1.1-1c-0.4-0.4-0.8-0.8-1.2-1.2&#10;&#9;&#9;&#9;&#9;&#9;&#9;&#9;&#9;&#9;&#9;&#9;c-0.4-0.5-0.8-1-1.3-1.5c-0.2-0.3-0.4-0.5-0.6-0.8c-0.1-0.1-0.2-0.3-0.3-0.4c-0.1-0.1-0.2-0.3-0.3-0.4l-0.1-0.2&#10;&#9;&#9;&#9;&#9;&#9;&#9;&#9;&#9;&#9;&#9;&#9;c0-0.1-0.1-0.2-0.1-0.2c-0.1-0.2-0.2-0.3-0.3-0.5c-0.1-0.2-0.2-0.3-0.3-0.5c-0.1-0.2-0.2-0.3-0.2-0.5&#10;&#9;&#9;&#9;&#9;&#9;&#9;&#9;&#9;&#9;&#9;&#9;c-0.1-0.3-0.3-0.7-0.4-1c-0.1-0.2-0.1-0.3-0.2-0.5c-0.1-0.2-0.1-0.3-0.2-0.5c-0.2-0.7-0.4-1.4-0.5-2c0-0.1,0-0.2,0-0.2&#10;&#9;&#9;&#9;&#9;&#9;&#9;&#9;&#9;&#9;&#9;&#9;c0-0.1,0-0.2,0-0.2c0-0.2,0-0.3-0.1-0.5C113.8,24.5,113.8,24.2,113.7,23.9c0.1-0.3,0.1-0.6,0.1-0.9c0-0.1,0-0.1,0-0.2&#10;&#9;&#9;&#9;&#9;&#9;&#9;&#9;&#9;&#9;&#9;&#9;c0-0.1,0-0.2,0-0.2c0,0.1-0.1,0.2-0.1,0.4c0,0,0,0,0,0.1C113.7,23.3,113.7,23.6,113.7,23.9z" style="fill: rgb(173, 50, 0);"/>
									</g>
									<g>
										<path class="st4" d="M114.8,19.7C114.8,19.7,114.8,19.7,114.8,19.7l7.4,18c0,0,0,0,0,0s0,0,0,0L114.8,19.7&#10;&#9;&#9;&#9;&#9;&#9;&#9;&#9;&#9;&#9;&#9;&#9;C114.8,19.7,114.8,19.7,114.8,19.7z" style="fill: rgb(173, 50, 0);"/>
									</g>
									<g>
										<path class="st4" d="M121.8,31.9c-0.2-1.3-0.5-2.7-0.9-4c-0.4-1.4-0.9-2.7-1.5-3.9c-0.6-1.2-1.3-2.2-2-3&#10;&#9;&#9;&#9;&#9;&#9;&#9;&#9;&#9;&#9;&#9;&#9;c-0.1-0.1-0.2-0.1-0.3-0.2c0.1,0.1,0.1,0.1,0.2,0.2c0.7,0.8,1.4,1.8,2,3c0.6,1.2,1.1,2.5,1.5,3.9&#10;&#9;&#9;&#9;&#9;&#9;&#9;&#9;&#9;&#9;&#9;&#9;C121.2,29.2,121.5,30.6,121.8,31.9c0.2,1.3,0.3,2.5,0.5,3.6c0.1,0.6,0.1,1.2,0.1,1.7c0,0,0,0,0,0c0-0.5-0.1-1.1-0.1-1.7&#10;&#9;&#9;&#9;&#9;&#9;&#9;&#9;&#9;&#9;&#9;&#9;C122.2,34.5,122,33.2,121.8,31.9z" style="fill: rgb(173, 50, 0);"/>
									</g>
									<g>
										<path class="st4" d="M118.2,33.3c-0.4-0.6-0.8-1.1-1.1-1.8c-0.4-0.6-0.7-1.2-1.1-1.9c-0.3-0.6-0.6-1.3-0.9-2&#10;&#9;&#9;&#9;&#9;&#9;&#9;&#9;&#9;&#9;&#9;&#9;c-0.3-0.7-0.5-1.3-0.7-2c-0.2-0.7-0.3-1.3-0.4-1.9c-0.1-0.5-0.1-1-0.1-1.5c0,0.1-0.1,0.2-0.1,0.3c0,0.1,0,0.1,0,0.2&#10;&#9;&#9;&#9;&#9;&#9;&#9;&#9;&#9;&#9;&#9;&#9;c0,0.3,0,0.6,0.1,1c0.1,0.6,0.2,1.3,0.4,1.9c0.2,0.7,0.4,1.3,0.7,2c0.3,0.7,0.6,1.3,0.9,2c0.3,0.7,0.7,1.3,1.1,1.9&#10;&#9;&#9;&#9;&#9;&#9;&#9;&#9;&#9;&#9;&#9;&#9;C117.3,32.2,117.7,32.7,118.2,33.3c0.7,1.1,1.5,2.1,2.2,3c0.3,0.4,0.7,0.8,0.9,1.1c0,0,0,0,0,0c0,0,0,0,0,0&#10;&#9;&#9;&#9;&#9;&#9;&#9;&#9;&#9;&#9;&#9;&#9;c0,0,0.1,0,0.1,0c-0.3-0.3-0.7-0.7-1-1.2C119.7,35.4,118.9,34.4,118.2,33.3z" style="fill: rgb(173, 50, 0);"/>
									</g>
									<g>
										<path class="st4" d="M120,28.1c-0.4-1.4-1-2.8-1.5-4c-0.6-1.3-1.2-2.4-1.8-3.3c-0.1-0.1-0.2-0.2-0.3-0.4&#10;&#9;&#9;&#9;&#9;&#9;&#9;&#9;&#9;&#9;&#9;&#9;c-0.1,0-0.1-0.1-0.2-0.1c0.1,0.2,0.3,0.3,0.4,0.5c0.6,0.9,1.2,2,1.8,3.3C119,25.3,119.5,26.7,120,28.1&#10;&#9;&#9;&#9;&#9;&#9;&#9;&#9;&#9;&#9;&#9;&#9;c0.9,2.8,1.5,5.6,2,7.8c0.1,0.6,0.2,1.1,0.3,1.6c0,0,0,0,0,0c-0.1-0.5-0.2-1-0.3-1.6C121.6,33.7,120.9,30.9,120,28.1z" style="fill: rgb(173, 50, 0);"/>
									</g>
									<g>
										<path class="st4" d="M120.2,35c-0.3-0.6-0.6-1.1-1-1.8c-0.3-0.6-0.7-1.3-1-1.9c-0.2-0.3-0.3-0.7-0.5-1&#10;&#9;&#9;&#9;&#9;&#9;&#9;&#9;&#9;&#9;&#9;&#9;c-0.2-0.3-0.3-0.7-0.5-1c-0.3-0.7-0.6-1.4-0.9-2c-0.1-0.3-0.3-0.7-0.4-1c-0.1-0.3-0.3-0.7-0.4-1c-0.2-0.7-0.5-1.3-0.6-1.9&#10;&#9;&#9;&#9;&#9;&#9;&#9;&#9;&#9;&#9;&#9;&#9;c-0.1-0.3-0.2-0.6-0.2-0.9c-0.1-0.3-0.1-0.6-0.2-0.9c-0.1-0.2-0.1-0.5-0.1-0.7c0,0.1,0,0.1-0.1,0.2c0,0.2,0.1,0.3,0.1,0.5&#10;&#9;&#9;&#9;&#9;&#9;&#9;&#9;&#9;&#9;&#9;&#9;c0.1,0.3,0.1,0.6,0.2,0.9c0.1,0.3,0.2,0.6,0.2,0.9c0.2,0.6,0.4,1.3,0.6,1.9c0.1,0.3,0.3,0.7,0.4,1c0.1,0.3,0.3,0.7,0.4,1&#10;&#9;&#9;&#9;&#9;&#9;&#9;&#9;&#9;&#9;&#9;&#9;c0.3,0.7,0.6,1.4,0.9,2c0.2,0.3,0.3,0.7,0.5,1c0.2,0.3,0.3,0.7,0.5,1c0.3,0.7,0.7,1.3,1,1.9&#10;&#9;&#9;&#9;&#9;&#9;&#9;&#9;&#9;&#9;&#9;&#9;C119.5,33.9,119.8,34.5,120.2,35c0.3,0.6,0.6,1.1,0.9,1.6c0.2,0.3,0.3,0.5,0.5,0.8c0,0,0.1,0,0.1,0&#10;&#9;&#9;&#9;&#9;&#9;&#9;&#9;&#9;&#9;&#9;&#9;c-0.2-0.3-0.3-0.6-0.5-0.9C120.8,36.1,120.5,35.6,120.2,35z" style="fill: rgb(173, 50, 0);"/>
									</g>
								</g>
							</g>
						</g>
						<g>
							<g>
								<path class="st3" d="M114,30.6c-2-5,0.8-10.9,0.8-10.9s6.2,2.2,8.2,7.1c2,5-0.8,10.9-0.8,10.9S116,35.5,114,30.6z" style="fill: rgb(236, 173, 50);"/>
							</g>
							<g>
								<g>
									<path class="st4" d="M122.1,37.4c-0.5-0.2-1.7-0.7-3.1-1.6c-1.6-1-3.7-2.8-4.8-5.3c-1-2.5-0.8-5.2-0.3-7.1&#10;&#9;&#9;&#9;&#9;&#9;&#9;&#9;&#9;&#9;&#9;c0.3-1.6,0.8-2.8,1.1-3.3c0.5,0.2,1.7,0.7,3.1,1.6c1.6,1,3.7,2.8,4.8,5.3c1,2.5,0.8,5.2,0.3,7.1&#10;&#9;&#9;&#9;&#9;&#9;&#9;&#9;&#9;&#9;&#9;C122.8,35.6,122.3,36.9,122.1,37.4 M122.2,37.7c0,0,2.9-5.9,0.8-10.9c-2-5-8.2-7.1-8.2-7.1s-2.9,5.9-0.8,10.9&#10;&#9;&#9;&#9;&#9;&#9;&#9;&#9;&#9;&#9;&#9;C116,35.5,122.2,37.7,122.2,37.7L122.2,37.7z" style="fill: rgb(173, 50, 0);"/>
								</g>
								<g>
									<g>
										<path class="st4" d="M122.8,34.9c0-0.5,0-1.1,0-1.7c0-0.6-0.1-1.2-0.1-1.9c0-0.2,0-0.3-0.1-0.5c0-0.1,0-0.2,0-0.3&#10;&#9;&#9;&#9;&#9;&#9;&#9;&#9;&#9;&#9;&#9;&#9;c0-0.1,0-0.2,0-0.3c0-0.2-0.1-0.3-0.1-0.5c0-0.2-0.1-0.3-0.1-0.5c-0.1-0.3-0.2-0.7-0.2-1c0-0.2-0.1-0.3-0.2-0.5&#10;&#9;&#9;&#9;&#9;&#9;&#9;&#9;&#9;&#9;&#9;&#9;c-0.1-0.2-0.1-0.3-0.2-0.5l-0.2-0.5c0-0.1-0.1-0.2-0.1-0.2l-0.1-0.2c-0.1-0.2-0.1-0.3-0.2-0.5c-0.1-0.2-0.2-0.3-0.2-0.5&#10;&#9;&#9;&#9;&#9;&#9;&#9;&#9;&#9;&#9;&#9;&#9;c-0.3-0.6-0.7-1.2-1-1.8c-0.1-0.1-0.2-0.3-0.3-0.4c-0.1-0.1-0.2-0.3-0.3-0.4c-0.2-0.2-0.4-0.5-0.6-0.7&#10;&#9;&#9;&#9;&#9;&#9;&#9;&#9;&#9;&#9;&#9;&#9;c-0.2-0.2-0.4-0.4-0.6-0.5c-0.2-0.1-0.3-0.2-0.5-0.3c0,0,0,0,0,0c0.1,0.1,0.2,0.2,0.3,0.3c0.2,0.2,0.4,0.4,0.6,0.6&#10;&#9;&#9;&#9;&#9;&#9;&#9;&#9;&#9;&#9;&#9;&#9;c0.2,0.2,0.4,0.5,0.6,0.7c0.1,0.1,0.2,0.3,0.3,0.4c0.1,0.1,0.2,0.3,0.3,0.4c0.4,0.5,0.7,1.1,1,1.8&#10;&#9;&#9;&#9;&#9;&#9;&#9;&#9;&#9;&#9;&#9;&#9;c0.1,0.2,0.2,0.3,0.2,0.5c0.1,0.2,0.1,0.3,0.2,0.5l0.1,0.2c0,0.1,0.1,0.2,0.1,0.2l0.2,0.5c0.1,0.2,0.1,0.3,0.2,0.5&#10;&#9;&#9;&#9;&#9;&#9;&#9;&#9;&#9;&#9;&#9;&#9;c0,0.2,0.1,0.3,0.2,0.5c0.1,0.3,0.2,0.7,0.3,1c0,0.2,0.1,0.3,0.1,0.5c0,0.2,0.1,0.3,0.1,0.5c0,0.1,0,0.2,0,0.2&#10;&#9;&#9;&#9;&#9;&#9;&#9;&#9;&#9;&#9;&#9;&#9;c0,0.1,0,0.2,0,0.3c0,0.2,0,0.3,0.1,0.5c0.1,0.7,0.1,1.3,0.2,1.9C122.8,33.8,122.8,34.4,122.8,34.9c0,0.5-0.1,1-0.1,1.4&#10;&#9;&#9;&#9;&#9;&#9;&#9;&#9;&#9;&#9;&#9;&#9;c0,0.1,0,0.1,0,0.2c0,0,0,0,0,0c0,0,0-0.1,0-0.1C122.8,35.9,122.8,35.4,122.8,34.9z" style="fill: rgb(173, 50, 0);"/>
									</g>
									<g>
										<path class="st4" d="M113.7,23.9c0,0.3,0,0.6,0.1,1c0,0.2,0,0.3,0.1,0.5c0,0.1,0,0.2,0,0.2c0,0.1,0,0.2,0,0.2&#10;&#9;&#9;&#9;&#9;&#9;&#9;&#9;&#9;&#9;&#9;&#9;c0.1,0.7,0.3,1.4,0.5,2c0.1,0.2,0.1,0.3,0.2,0.5c0.1,0.2,0.1,0.3,0.2,0.5c0.1,0.3,0.3,0.7,0.4,1c0.1,0.2,0.2,0.3,0.2,0.5&#10;&#9;&#9;&#9;&#9;&#9;&#9;&#9;&#9;&#9;&#9;&#9;c0.1,0.2,0.2,0.3,0.3,0.5c0.1,0.2,0.2,0.3,0.3,0.5c0,0.1,0.1,0.2,0.1,0.2l0.1,0.2c0.1,0.1,0.2,0.3,0.3,0.4&#10;&#9;&#9;&#9;&#9;&#9;&#9;&#9;&#9;&#9;&#9;&#9;c0.1,0.1,0.2,0.3,0.3,0.4c0.2,0.3,0.4,0.6,0.6,0.8c0.4,0.5,0.8,1,1.3,1.5c0.4,0.5,0.8,0.9,1.2,1.2c0.4,0.4,0.8,0.7,1.1,1&#10;&#9;&#9;&#9;&#9;&#9;&#9;&#9;&#9;&#9;&#9;&#9;c0.1,0.1,0.2,0.2,0.3,0.2c0,0,0,0,0,0c-0.1-0.1-0.2-0.1-0.2-0.2c-0.3-0.3-0.7-0.6-1.1-1c-0.4-0.4-0.8-0.8-1.2-1.2&#10;&#9;&#9;&#9;&#9;&#9;&#9;&#9;&#9;&#9;&#9;&#9;c-0.4-0.5-0.8-1-1.3-1.5c-0.2-0.3-0.4-0.5-0.6-0.8c-0.1-0.1-0.2-0.3-0.3-0.4c-0.1-0.1-0.2-0.3-0.3-0.4l-0.1-0.2&#10;&#9;&#9;&#9;&#9;&#9;&#9;&#9;&#9;&#9;&#9;&#9;c0-0.1-0.1-0.2-0.1-0.2c-0.1-0.2-0.2-0.3-0.3-0.5c-0.1-0.2-0.2-0.3-0.3-0.5c-0.1-0.2-0.2-0.3-0.2-0.5&#10;&#9;&#9;&#9;&#9;&#9;&#9;&#9;&#9;&#9;&#9;&#9;c-0.1-0.3-0.3-0.7-0.4-1c-0.1-0.2-0.1-0.3-0.2-0.5c-0.1-0.2-0.1-0.3-0.2-0.5c-0.2-0.7-0.4-1.4-0.5-2c0-0.1,0-0.2,0-0.2&#10;&#9;&#9;&#9;&#9;&#9;&#9;&#9;&#9;&#9;&#9;&#9;c0-0.1,0-0.2,0-0.2c0-0.2,0-0.3-0.1-0.5C113.8,24.5,113.8,24.2,113.7,23.9c0.1-0.3,0.1-0.6,0.1-0.9c0-0.1,0-0.1,0-0.2&#10;&#9;&#9;&#9;&#9;&#9;&#9;&#9;&#9;&#9;&#9;&#9;c0-0.1,0-0.2,0-0.2c0,0.1-0.1,0.2-0.1,0.4c0,0,0,0,0,0.1C113.7,23.3,113.7,23.6,113.7,23.9z" style="fill: rgb(173, 50, 0);"/>
									</g>
									<g>
										<path class="st4" d="M114.8,19.7C114.8,19.7,114.8,19.7,114.8,19.7l7.4,18c0,0,0,0,0,0s0,0,0,0L114.8,19.7&#10;&#9;&#9;&#9;&#9;&#9;&#9;&#9;&#9;&#9;&#9;&#9;C114.8,19.7,114.8,19.7,114.8,19.7z" style="fill: rgb(173, 50, 0);"/>
									</g>
									<g>
										<path class="st4" d="M121.8,31.9c-0.2-1.3-0.5-2.7-0.9-4c-0.4-1.4-0.9-2.7-1.5-3.9c-0.6-1.2-1.3-2.2-2-3&#10;&#9;&#9;&#9;&#9;&#9;&#9;&#9;&#9;&#9;&#9;&#9;c-0.1-0.1-0.2-0.1-0.3-0.2c0.1,0.1,0.1,0.1,0.2,0.2c0.7,0.8,1.4,1.8,2,3c0.6,1.2,1.1,2.5,1.5,3.9&#10;&#9;&#9;&#9;&#9;&#9;&#9;&#9;&#9;&#9;&#9;&#9;C121.2,29.2,121.5,30.6,121.8,31.9c0.2,1.3,0.3,2.5,0.5,3.6c0.1,0.6,0.1,1.2,0.1,1.7c0,0,0,0,0,0c0-0.5-0.1-1.1-0.1-1.7&#10;&#9;&#9;&#9;&#9;&#9;&#9;&#9;&#9;&#9;&#9;&#9;C122.2,34.5,122,33.2,121.8,31.9z" style="fill: rgb(173, 50, 0);"/>
									</g>
									<g>
										<path class="st4" d="M118.2,33.3c-0.4-0.6-0.8-1.1-1.1-1.8c-0.4-0.6-0.7-1.2-1.1-1.9c-0.3-0.6-0.6-1.3-0.9-2&#10;&#9;&#9;&#9;&#9;&#9;&#9;&#9;&#9;&#9;&#9;&#9;c-0.3-0.7-0.5-1.3-0.7-2c-0.2-0.7-0.3-1.3-0.4-1.9c-0.1-0.5-0.1-1-0.1-1.5c0,0.1-0.1,0.2-0.1,0.3c0,0.1,0,0.1,0,0.2&#10;&#9;&#9;&#9;&#9;&#9;&#9;&#9;&#9;&#9;&#9;&#9;c0,0.3,0,0.6,0.1,1c0.1,0.6,0.2,1.3,0.4,1.9c0.2,0.7,0.4,1.3,0.7,2c0.3,0.7,0.6,1.3,0.9,2c0.3,0.7,0.7,1.3,1.1,1.9&#10;&#9;&#9;&#9;&#9;&#9;&#9;&#9;&#9;&#9;&#9;&#9;C117.3,32.2,117.7,32.7,118.2,33.3c0.7,1.1,1.5,2.1,2.2,3c0.3,0.4,0.7,0.8,0.9,1.1c0,0,0,0,0,0c0,0,0,0,0,0&#10;&#9;&#9;&#9;&#9;&#9;&#9;&#9;&#9;&#9;&#9;&#9;c0,0,0.1,0,0.1,0c-0.3-0.3-0.7-0.7-1-1.2C119.7,35.4,118.9,34.4,118.2,33.3z" style="fill: rgb(173, 50, 0);"/>
									</g>
									<g>
										<path class="st4" d="M120,28.1c-0.4-1.4-1-2.8-1.5-4c-0.6-1.3-1.2-2.4-1.8-3.3c-0.1-0.1-0.2-0.2-0.3-0.4&#10;&#9;&#9;&#9;&#9;&#9;&#9;&#9;&#9;&#9;&#9;&#9;c-0.1,0-0.1-0.1-0.2-0.1c0.1,0.2,0.3,0.3,0.4,0.5c0.6,0.9,1.2,2,1.8,3.3C119,25.3,119.5,26.7,120,28.1&#10;&#9;&#9;&#9;&#9;&#9;&#9;&#9;&#9;&#9;&#9;&#9;c0.9,2.8,1.5,5.6,2,7.8c0.1,0.6,0.2,1.1,0.3,1.6c0,0,0,0,0,0c-0.1-0.5-0.2-1-0.3-1.6C121.6,33.7,120.9,30.9,120,28.1z" style="fill: rgb(173, 50, 0);"/>
									</g>
									<g>
										<path class="st4" d="M120.2,35c-0.3-0.6-0.6-1.1-1-1.8c-0.3-0.6-0.7-1.3-1-1.9c-0.2-0.3-0.3-0.7-0.5-1&#10;&#9;&#9;&#9;&#9;&#9;&#9;&#9;&#9;&#9;&#9;&#9;c-0.2-0.3-0.3-0.7-0.5-1c-0.3-0.7-0.6-1.4-0.9-2c-0.1-0.3-0.3-0.7-0.4-1c-0.1-0.3-0.3-0.7-0.4-1c-0.2-0.7-0.5-1.3-0.6-1.9&#10;&#9;&#9;&#9;&#9;&#9;&#9;&#9;&#9;&#9;&#9;&#9;c-0.1-0.3-0.2-0.6-0.2-0.9c-0.1-0.3-0.1-0.6-0.2-0.9c-0.1-0.2-0.1-0.5-0.1-0.7c0,0.1,0,0.1-0.1,0.2c0,0.2,0.1,0.3,0.1,0.5&#10;&#9;&#9;&#9;&#9;&#9;&#9;&#9;&#9;&#9;&#9;&#9;c0.1,0.3,0.1,0.6,0.2,0.9c0.1,0.3,0.2,0.6,0.2,0.9c0.2,0.6,0.4,1.3,0.6,1.9c0.1,0.3,0.3,0.7,0.4,1c0.1,0.3,0.3,0.7,0.4,1&#10;&#9;&#9;&#9;&#9;&#9;&#9;&#9;&#9;&#9;&#9;&#9;c0.3,0.7,0.6,1.4,0.9,2c0.2,0.3,0.3,0.7,0.5,1c0.2,0.3,0.3,0.7,0.5,1c0.3,0.7,0.7,1.3,1,1.9&#10;&#9;&#9;&#9;&#9;&#9;&#9;&#9;&#9;&#9;&#9;&#9;C119.5,33.9,119.8,34.5,120.2,35c0.3,0.6,0.6,1.1,0.9,1.6c0.2,0.3,0.3,0.5,0.5,0.8c0,0,0.1,0,0.1,0&#10;&#9;&#9;&#9;&#9;&#9;&#9;&#9;&#9;&#9;&#9;&#9;c-0.2-0.3-0.3-0.6-0.5-0.9C120.8,36.1,120.5,35.6,120.2,35z" style="fill: rgb(173, 50, 0);"/>
									</g>
								</g>
							</g>
						</g>
					</g></g></svg>